<svg width="16" height="12" viewBox="0 0 16 12" fill="none" xmlns="http://www.w3.org/2000/svg">
<path d="M14.7104 1.21C14.6175 1.11627 14.5069 1.04188 14.385 0.991107C14.2632 0.940338 14.1324 0.9142 14.0004 0.9142C13.8684 0.9142 13.7377 0.940338 13.6159 0.991107C13.494 1.04188 13.3834 1.11627 13.2904 1.21L5.84044 8.67L2.71044 5.53C2.61392 5.43676 2.49998 5.36345 2.37512 5.31424C2.25026 5.26504 2.11694 5.24091 1.98276 5.24323C1.84858 5.24555 1.71617 5.27428 1.59309 5.32777C1.47001 5.38126 1.35868 5.45848 1.26544 5.555C1.1722 5.65152 1.09889 5.76546 1.04968 5.89032C1.00048 6.01517 0.976347 6.1485 0.978669 6.28268C0.98099 6.41686 1.00972 6.54927 1.06321 6.67234C1.1167 6.79542 1.19392 6.90676 1.29044 7L5.13044 10.84C5.2234 10.9337 5.334 11.0081 5.45586 11.0589C5.57772 11.1097 5.70843 11.1358 5.84044 11.1358C5.97245 11.1358 6.10316 11.1097 6.22502 11.0589C6.34687 11.0081 6.45748 10.9337 6.55044 10.84L14.7104 2.68C14.8119 2.58636 14.893 2.4727 14.9484 2.3462C15.0038 2.21971 15.0324 2.0831 15.0324 1.945C15.0324 1.8069 15.0038 1.67029 14.9484 1.54379C14.893 1.41729 14.8119 1.30364 14.7104 1.21Z" fill="currentColor" fill-opacity="1.0"/>
</svg>
