<svg width="20" height="20" viewBox="0 0 20 20" fill="none" xmlns="http://www.w3.org/2000/svg">
<path d="M18.2231 11.9256V8.61398H17.8567C16.3055 8.61398 14.922 8.88246 13.7836 9.22777C13.6481 8.95344 13.4998 8.67379 13.3556 8.41059C13.4177 8.3543 13.4793 8.29656 13.5385 8.23734C14.4108 7.36563 14.9519 6.15715 14.9513 4.82551C14.9519 3.49391 14.4108 2.28543 13.5385 1.41395C12.6662 0.540508 11.4573 0 10.126 0C8.79465 0 7.58585 0.540508 6.71412 1.41398C5.8418 2.28543 5.30074 3.49391 5.30074 4.82555C5.30074 6.15719 5.8418 7.36566 6.71412 8.23738C6.77334 8.2966 6.83427 8.35523 6.89701 8.41062C6.75224 8.67383 6.60392 8.95348 6.46849 9.22781C5.32945 8.8825 3.94708 8.61402 2.39589 8.61402H2.02948V11.9256C0.923288 11.9462 0.5 12.8583 0.5 13.9815C0.5 15.1047 0.923288 16.0169 2.02948 16.0374V18.6734L2.38241 18.6857H2.39237C2.50315 18.6895 3.5109 18.7329 4.87624 18.9158C6.24102 19.0981 7.96394 19.422 9.49521 19.978L9.55556 20H10.697L10.7573 19.978C12.3372 19.4041 14.1229 19.0779 15.507 18.8988C16.2 18.8094 16.792 18.7557 17.2106 18.7247C17.4199 18.7091 17.5858 18.6995 17.6989 18.693C17.7552 18.6903 17.798 18.688 17.8273 18.6871C17.8414 18.6862 17.8525 18.6857 17.859 18.6857H17.8695L18.223 18.6734V16.0374C19.3292 16.016 19.7513 15.1047 19.7513 13.9815C19.7514 12.8583 19.3293 11.9467 18.2231 11.9256ZM2.06881 15.3055C2.05651 15.3055 2.04358 15.3055 2.02952 15.3049C1.77803 15.3023 1.23282 15.2363 1.23282 13.9815C1.23282 12.7264 1.77803 12.6605 2.02952 12.6581C2.04358 12.6572 2.05651 12.6572 2.06881 12.6572C2.32264 12.6572 2.56007 12.7299 2.76175 12.8542C3.14043 13.087 3.3925 13.5055 3.3925 13.9815C3.3925 14.4575 3.14043 14.8758 2.76175 15.1086C2.56007 15.2331 2.32264 15.3055 2.06881 15.3055ZM9.1347 11.182V19.0829C7.64683 18.6092 6.08508 18.3348 4.83878 18.1721C3.92072 18.0532 3.17563 17.9971 2.76175 17.972V15.9184C3.55727 15.6335 4.12529 14.8743 4.12529 13.9815C4.12529 13.0887 3.55723 12.3292 2.76175 12.0446V9.35238C4.67049 9.40687 6.29673 9.88113 7.46452 10.3575C8.08535 10.6095 8.5766 10.8619 8.90899 11.0501C8.99462 11.0988 9.07021 11.143 9.1347 11.182ZM10.629 19.2464C10.6097 19.2529 10.5897 19.2602 10.5704 19.2675H9.68225C9.66291 19.2602 9.64357 19.2529 9.62303 19.2464V11.4217H10.629V19.2464ZM10.126 8.93289C9.00981 8.93289 8.00089 8.48941 7.26108 7.76836C7.24819 7.75547 7.2353 7.74312 7.22178 7.73027C6.82021 7.32809 6.50247 6.84477 6.29434 6.30605C7.01541 6.17004 7.67788 5.89805 8.26879 5.5627C9.26482 4.99816 10.0627 4.2557 10.6161 3.65453C10.8553 3.3948 11.0482 3.16121 11.1912 2.97891C11.4216 3.27586 11.7692 3.71141 12.1655 4.16309C12.5214 4.56848 12.9159 4.98676 13.3075 5.3341C13.5027 5.50824 13.698 5.66473 13.8914 5.79398C13.9571 5.83707 14.0222 5.87633 14.0872 5.91355C13.8967 6.61027 13.528 7.23285 13.0309 7.73027C13.0173 7.74316 13.0045 7.75637 12.991 7.76926C12.2499 8.49031 11.2411 8.93289 10.126 8.93289ZM17.4909 17.972C17.077 17.9971 16.3319 18.0532 15.4127 18.1721C14.1675 18.3339 12.6058 18.6092 11.1179 19.0829L11.1174 11.1811C11.4363 10.9897 12.0225 10.6667 12.8169 10.3452C13.9823 9.87383 15.5974 9.40602 17.4909 9.35238V12.0446C16.6954 12.3292 16.1268 13.0887 16.1268 13.9815C16.1268 14.8743 16.6954 15.6335 17.4909 15.9184L17.4909 17.972ZM18.2231 15.3049C18.2085 15.3055 18.1956 15.3055 18.1833 15.3055C17.9294 15.3055 17.6926 15.234 17.4909 15.1094C17.1122 14.8758 16.859 14.4575 16.859 13.9815C16.859 13.5055 17.1122 13.087 17.4909 12.8533C17.6926 12.7291 17.9294 12.6572 18.1833 12.6572C18.1956 12.6572 18.2085 12.6572 18.2231 12.6581C18.4752 12.6613 19.0192 12.7282 19.0192 13.9815C19.0192 15.2348 18.4752 15.3017 18.2231 15.3049Z" fill="currentColor" fill-opacity="1.0"/>
<path d="M8.08016 6.77887C8.34988 6.77887 8.56853 6.56023 8.56853 6.29051C8.56853 6.0208 8.34988 5.80215 8.08016 5.80215C7.81045 5.80215 7.5918 6.0208 7.5918 6.29051C7.5918 6.56023 7.81045 6.77887 8.08016 6.77887Z" fill="currentColor" fill-opacity="1.0"/>
<path d="M11.254 6.77887C11.5237 6.77887 11.7424 6.56023 11.7424 6.29051C11.7424 6.0208 11.5237 5.80215 11.254 5.80215C10.9843 5.80215 10.7656 6.0208 10.7656 6.29051C10.7656 6.56023 10.9843 6.77887 11.254 6.77887Z" fill="currentColor" fill-opacity="1.0"/>
</svg>
