<svg width="19" height="20" viewBox="0 0 19 20" fill="none" xmlns="http://www.w3.org/2000/svg">
<path fill-rule="evenodd" clip-rule="evenodd" d="M9.64134 1.91322C9.47008 1.86334 9.28813 1.86334 9.11677 1.91322C9.06753 1.92758 8.98087 1.9635 8.79658 2.10303C8.60281 2.24978 8.36552 2.45979 7.9958 2.78845L3.08152 7.15669C2.47906 7.69222 2.30827 7.85374 2.18953 8.03232C2.07532 8.20414 1.99023 8.3936 1.9377 8.59309C1.88308 8.80056 1.87586 9.03541 1.87586 9.84154V13.4347C1.87586 14.3215 1.87638 14.9397 1.90938 15.4235C1.94183 15.899 2.00249 16.1759 2.09005 16.3872C2.37562 17.0766 2.92337 17.6245 3.61281 17.91C3.8242 17.9976 4.10107 18.0583 4.5765 18.0907C5.06036 18.1237 5.67852 18.1242 6.56536 18.1242H12.1928C13.0796 18.1242 13.6978 18.1237 14.1816 18.0907C14.657 18.0583 14.9339 17.9976 15.1453 17.91C15.8348 17.6245 16.3825 17.0766 16.6681 16.3872C16.7556 16.1759 16.8163 15.899 16.8487 15.4235C16.8817 14.9397 16.8823 14.3215 16.8823 13.4347V9.84154C16.8823 9.03541 16.8751 8.80056 16.8204 8.59309C16.7679 8.3936 16.6828 8.20414 16.5686 8.03232C16.4498 7.85374 16.279 7.69222 15.6766 7.15669L10.7623 2.78845C10.3926 2.45979 10.1553 2.24978 9.96154 2.10303C9.77724 1.9635 9.69058 1.92758 9.64134 1.91322ZM8.5923 0.112225C9.10618 -0.0374084 9.65194 -0.0374084 10.1658 0.112225C10.5223 0.216061 10.8179 0.398652 11.0938 0.607505C11.3536 0.804203 11.6462 1.06428 11.9831 1.36376L16.9228 5.7547C16.9495 5.77833 16.9756 5.80165 17.0016 5.82466C17.4909 6.25912 17.8604 6.58733 18.1307 6.99384C18.3591 7.33748 18.5293 7.71644 18.6344 8.11551C18.7587 8.58756 18.7585 9.08183 18.7581 9.73612C18.7581 9.77082 18.7581 9.8059 18.7581 9.84154V13.468C18.7581 14.3138 18.7581 14.996 18.7202 15.5512C18.6812 16.1221 18.5991 16.627 18.4011 17.1051C17.9251 18.2542 17.0122 19.167 15.8632 19.643C15.3851 19.841 14.8803 19.9232 14.3093 19.9621C13.754 20 13.0718 20 12.2261 20H6.53205C5.68629 20 5.00406 20 4.44881 19.9621C3.87787 19.9232 3.37302 19.841 2.89498 19.643C1.74592 19.167 0.832994 18.2541 0.357038 17.1051C0.159019 16.627 0.0768967 16.1221 0.0379363 15.5512C5.45606e-05 14.996 6.40519e-05 14.3138 6.40519e-05 13.468V9.84154C6.40519e-05 9.8059 4.52557e-05 9.77082 3.58767e-05 9.73612C-0.000311146 9.08183 -0.000564456 8.58756 0.123726 8.11551C0.228799 7.71644 0.398981 7.33748 0.627415 6.99384C0.897643 6.58733 1.26726 6.25912 1.75653 5.82467C1.78246 5.80165 1.80871 5.77833 1.83531 5.7547L6.77506 1.36377C7.11196 1.06428 7.40452 0.804203 7.66434 0.607505C7.94018 0.398652 8.23581 0.216061 8.5923 0.112225Z" fill="currentColor" fill-opacity="1.0"/>
</svg>
