<svg width="21" height="20" viewBox="0 0 21 20" fill="none" xmlns="http://www.w3.org/2000/svg">
<path d="M1.92871 0V1.94359L2.77777 1.68164V0.849047H19.7603V11.6747H6.2464L6.2023 12.5231H20.6087V0H1.92871Z" fill="currentColor" fill-opacity="1.0"/>
<path d="M3.28055 7.1636C4.6695 7.1636 5.79547 6.03765 5.79547 4.64871C5.79547 3.25977 4.6695 2.13382 3.28055 2.13382C1.89159 2.13382 0.765625 3.25977 0.765625 4.64871C0.765625 6.03765 1.89159 7.1636 3.28055 7.1636Z" fill="currentColor" fill-opacity="1.0"/>
<path d="M5.41489 18.8508V14.3739V13.952V13.3794H5.57483L5.80848 8.83405L10.1466 6.58704L9.57659 5.48788L5.61037 7.54205H4.19527L3.23629 8.65371L2.30891 7.54205L0.271172 7.91129L0.140852 12.4409H1.00439L1.05112 13.3794H1.18276V13.952V14.3739V18.8508H1.00966L0 19.0707V20H0.859589L1.86266 19.8355L1.87188 20H2.98224V18.9634V18.8508V14.3739H3.61475V18.8508V18.9634V20H4.72642L4.73564 19.8355L5.73806 20H6.59764V19.0707L5.58865 18.8508H5.41489Z" fill="currentColor" fill-opacity="1.0"/>
<path d="M18.1408 3.79901H7.26562V4.11691H18.1408V3.79901Z" fill="currentColor" fill-opacity="1.0"/>
<path d="M18.1408 2.68469H7.26562V3.00325H18.1408V2.68469Z" fill="currentColor" fill-opacity="1.0"/>
<path d="M18.1408 4.88632H7.26562V5.20488H18.1408V4.88632Z" fill="currentColor" fill-opacity="1.0"/>
<path d="M18.1406 5.92096H10.2246L10.3898 6.23886H18.1406V5.92096Z" fill="currentColor" fill-opacity="1.0"/>
<path d="M9.49512 7.32617H18.1404V7.00827H10.1507L9.49512 7.32617Z" fill="currentColor" fill-opacity="1.0"/>
<path d="M7.26562 8.41938V8.43518H18.1408V8.11728H7.80797L7.26562 8.41938Z" fill="currentColor" fill-opacity="1.0"/>
<path d="M18.9358 9.66336H15.6113V10.8994H18.9358V9.66336Z" fill="currentColor" fill-opacity="1.0"/>
</svg>
