<svg width="14" height="18" viewBox="0 0 14 18" fill="none" xmlns="http://www.w3.org/2000/svg">
<path d="M3.52907 3.39612C4.43948 3.39612 5.17701 2.65798 5.17701 1.74822C5.17701 0.837536 4.43948 0.100006 3.52907 0.100006C2.61842 0.100006 1.88086 0.837536 1.88086 1.74822C1.88086 2.65798 2.61842 3.39612 3.52907 3.39612Z" fill="currentColor" fill-opacity="1.0"/>
<path d="M11.756 7.76744C12.3864 7.76744 12.8969 7.25666 12.8969 6.62693C12.8969 5.99628 12.3864 5.48581 11.756 5.48581C11.1257 5.48581 10.6152 5.99628 10.6152 6.62693C10.6152 7.25666 11.1257 7.76744 11.756 7.76744Z" fill="currentColor" fill-opacity="1.0"/>
<path d="M12.7453 8.30778H11.745H11.054C10.6683 8.30778 10.3011 8.47382 10.0463 8.76374L9.2086 9.71694C9.15716 9.77576 9.08227 9.80905 9.00407 9.80813L8.35616 9.80041C8.25235 9.79918 8.1587 9.7382 8.11526 9.64362L6.21043 5.48211C5.84658 4.68665 5.05235 4.17679 4.17772 4.17679H3.51259H2.06771C1.26914 4.17679 0.400391 5.04557 0.400391 5.84442V11.3836C0.400391 11.7829 0.723867 12.1067 1.12312 12.1067C1.31969 12.1067 1.12312 12.1067 1.62775 12.1067L1.90255 16.8308C1.90255 17.2556 2.24729 17.6 2.67214 17.6C2.85142 17.6 3.182 17.6 3.51255 17.6C3.84314 17.6 4.17369 17.6 4.353 17.6C4.77785 17.6 5.12255 17.2556 5.12255 16.8308L5.39736 12.1067L5.51815 7.66424L6.96668 10.8294C7.01043 10.9246 7.10566 10.9859 7.21069 10.9859H9.69193C9.76897 10.9859 9.8426 10.9526 9.89342 10.8947L10.4403 10.2724V13.7974L10.6303 17.0677C10.6303 17.3615 10.8691 17.6 11.1633 17.6C11.2872 17.6 11.5161 17.6 11.745 17.6C11.9739 17.6 12.2028 17.6 12.3266 17.6C12.6209 17.6 12.8596 17.3615 12.8596 17.0677L13.0497 13.7974C13.3991 13.7974 13.2629 13.7974 13.3991 13.7974C13.6754 13.7974 13.8994 13.5731 13.8994 13.2967V9.46244C13.8994 8.90914 13.298 8.30778 12.7453 8.30778Z" fill="currentColor" fill-opacity="1.0"/>
</svg>
