<svg width="25" height="25" viewBox="0 0 25 25" fill="none" xmlns="http://www.w3.org/2000/svg">
<path d="M9.37435 10.4167H10.416C10.6923 10.4167 10.9572 10.307 11.1526 10.1116C11.3479 9.91626 11.4577 9.65131 11.4577 9.37504C11.4577 9.09877 11.3479 8.83382 11.1526 8.63847C10.9572 8.44312 10.6923 8.33337 10.416 8.33337H9.37435C9.09808 8.33337 8.83313 8.44312 8.63778 8.63847C8.44243 8.83382 8.33268 9.09877 8.33268 9.37504C8.33268 9.65131 8.44243 9.91626 8.63778 10.1116C8.83313 10.307 9.09808 10.4167 9.37435 10.4167V10.4167ZM9.37435 12.5C9.09808 12.5 8.83313 12.6098 8.63778 12.8051C8.44243 13.0005 8.33268 13.2654 8.33268 13.5417C8.33268 13.818 8.44243 14.0829 8.63778 14.2783C8.83313 14.4736 9.09808 14.5834 9.37435 14.5834H15.6243C15.9006 14.5834 16.1656 14.4736 16.3609 14.2783C16.5563 14.0829 16.666 13.818 16.666 13.5417C16.666 13.2654 16.5563 13.0005 16.3609 12.8051C16.1656 12.6098 15.9006 12.5 15.6243 12.5H9.37435ZM20.8327 9.31254C20.8218 9.21685 20.8009 9.12257 20.7702 9.03129V8.93754C20.7201 8.83044 20.6533 8.73198 20.5723 8.64587V8.64587L14.3223 2.39587C14.2362 2.31485 14.1377 2.24804 14.0306 2.19796C13.9995 2.19354 13.9679 2.19354 13.9368 2.19796C13.831 2.13727 13.7142 2.09832 13.5931 2.08337H7.29102C6.46221 2.08337 5.66736 2.41261 5.08131 2.99867C4.49526 3.58472 4.16602 4.37957 4.16602 5.20837V19.7917C4.16602 20.6205 4.49526 21.4154 5.08131 22.0014C5.66736 22.5875 6.46221 22.9167 7.29102 22.9167H17.7077C18.5365 22.9167 19.3313 22.5875 19.9174 22.0014C20.5034 21.4154 20.8327 20.6205 20.8327 19.7917V9.37504C20.8327 9.37504 20.8327 9.37504 20.8327 9.31254ZM14.5827 5.63546L17.2806 8.33337H15.6243C15.3481 8.33337 15.0831 8.22363 14.8878 8.02828C14.6924 7.83293 14.5827 7.56797 14.5827 7.29171V5.63546ZM18.7494 19.7917C18.7494 20.068 18.6396 20.3329 18.4443 20.5283C18.2489 20.7236 17.984 20.8334 17.7077 20.8334H7.29102C7.01475 20.8334 6.7498 20.7236 6.55445 20.5283C6.3591 20.3329 6.24935 20.068 6.24935 19.7917V5.20837C6.24935 4.93211 6.3591 4.66715 6.55445 4.4718C6.7498 4.27645 7.01475 4.16671 7.29102 4.16671H12.4993V7.29171C12.4993 8.12051 12.8286 8.91537 13.4146 9.50142C14.0007 10.0875 14.7955 10.4167 15.6243 10.4167H18.7494V19.7917ZM15.6243 16.6667H9.37435C9.09808 16.6667 8.83313 16.7765 8.63778 16.9718C8.44243 17.1672 8.33268 17.4321 8.33268 17.7084C8.33268 17.9846 8.44243 18.2496 8.63778 18.4449C8.83313 18.6403 9.09808 18.75 9.37435 18.75H15.6243C15.9006 18.75 16.1656 18.6403 16.3609 18.4449C16.5563 18.2496 16.666 17.9846 16.666 17.7084C16.666 17.4321 16.5563 17.1672 16.3609 16.9718C16.1656 16.7765 15.9006 16.6667 15.6243 16.6667Z" fill="currentColor" fill-opacity="1.0"/>
</svg>
