<svg width="25" height="25" viewBox="0 0 25 25" fill="none" xmlns="http://www.w3.org/2000/svg">
<path d="M12.5 11.7188C15.0888 11.7188 17.1875 9.4452 17.1875 6.64062C17.1875 3.83605 15.0888 1.5625 12.5 1.5625C9.91117 1.5625 7.8125 3.83605 7.8125 6.64062C7.8125 9.4452 9.91117 11.7188 12.5 11.7188Z" fill="currentColor" fill-opacity="1.0"/>
<path d="M12.5 23.4374C16.8147 23.4374 20.3125 21.4942 20.3125 19.0971C20.3125 16.7001 16.8147 14.7569 12.5 14.7569C8.18528 14.7569 4.6875 16.7001 4.6875 19.0971C4.6875 21.4942 8.18528 23.4374 12.5 23.4374Z" fill="currentColor" fill-opacity="1.0"/>
<path fill-rule="evenodd" clip-rule="evenodd" d="M12.5 13.9758C9.71641 13.9758 7.25391 14.7523 5.72422 15.9117C4.55469 16.7977 3.90625 17.9156 3.90625 19.0969C3.90625 20.2789 4.55469 21.3969 5.72422 22.2828C7.25391 23.4422 9.71641 24.2188 12.5 24.2188C15.2836 24.2188 17.7461 23.4422 19.2758 22.2828C20.4453 21.3969 21.0938 20.2789 21.0938 19.0969C21.0938 17.9156 20.4453 16.7977 19.2758 15.9117C17.7461 14.7523 15.2836 13.9758 12.5 13.9758ZM12.5 15.5383C14.8906 15.5383 17.018 16.1617 18.3328 17.157C19.0594 17.7086 19.5312 18.3625 19.5312 19.0969C19.5312 19.832 19.0594 20.4859 18.3328 21.0375C17.018 22.0328 14.8906 22.6562 12.5 22.6562C10.1094 22.6562 7.98203 22.0328 6.66719 21.0375C5.94063 20.4859 5.46875 19.832 5.46875 19.0969C5.46875 18.3625 5.94063 17.7086 6.66719 17.157C7.98203 16.1617 10.1094 15.5383 12.5 15.5383ZM12.5 0.78125C9.49922 0.78125 7.03125 3.38984 7.03125 6.64062C7.03125 9.89141 9.49922 12.5 12.5 12.5C15.5008 12.5 17.9688 9.89141 17.9688 6.64062C17.9688 3.38984 15.5008 0.78125 12.5 0.78125ZM12.5 2.34375C14.6742 2.34375 16.4062 4.28594 16.4062 6.64062C16.4062 8.99531 14.6742 10.9375 12.5 10.9375C10.3258 10.9375 8.59375 8.99531 8.59375 6.64062C8.59375 4.28594 10.3258 2.34375 12.5 2.34375Z" fill="currentColor" fill-opacity="1.0"/>
</svg>
