<svg width="25" height="25" viewBox="0 0 25 25" fill="none" xmlns="http://www.w3.org/2000/svg">
<path d="M21.7813 11.5833C21.7813 16.6771 18.0834 21.4479 13.0313 22.8437C12.6876 22.9375 12.3125 22.9375 11.9687 22.8437C6.91667 21.4479 3.21875 16.6771 3.21875 11.5833V7.01048C3.21875 6.15631 3.8646 5.18757 4.66669 4.86465L10.4687 2.48965C11.7708 1.9584 13.2395 1.9584 14.5416 2.48965L20.3437 4.86465C21.1354 5.18757 21.7917 6.15631 21.7917 7.01048L21.7813 11.5833Z" fill="#BDAFFF"/>
<path d="M15.1048 10.9375C15.1048 9.49999 13.9382 8.33333 12.5007 8.33333C11.0632 8.33333 9.89648 9.49999 9.89648 10.9375C9.89648 12.1042 10.6673 13.0729 11.7194 13.4062V16.1458C11.7194 16.5729 12.0736 16.9271 12.5007 16.9271C12.9277 16.9271 13.2819 16.5729 13.2819 16.1458V13.4062C14.334 13.0729 15.1048 12.1042 15.1048 10.9375Z" fill="#6949FF"/>
</svg>
