<svg width="51" height="44" viewBox="0 0 51 44" fill="none" xmlns="http://www.w3.org/2000/svg">
<path d="M48.4323 6.98312L48.1299 6.48192C45.5679 2.26232 40.9367 -0.282875 36.0535 0.0251247C35.4255 0.0647793 34.8012 0.150881 34.1859 0.282724C31.9529 0.791327 29.8803 1.84403 28.1524 3.34717C26.4246 4.8503 25.0951 6.75725 24.2823 8.89832C23.3415 11.4183 23.0783 14.3359 21.2919 16.3435C18.9651 18.9559 15.0171 19.0371 11.5479 18.9307C8.07869 18.8243 4.12509 18.9139 1.80949 21.5347C0.361891 23.1783 -0.100107 25.5135 0.0174929 27.7143C0.325493 33.5355 4.38549 38.7435 9.53749 41.3307C14.6895 43.9179 20.7739 44.1503 26.4215 43.0107C34.3343 41.4175 41.8579 37.0383 46.3799 30.2735C50.9019 23.5087 52.0527 14.2827 48.4323 6.98312Z" fill="currentColor" fill-opacity="1.0"/>
<path d="M10.394 14.4759C13.7543 14.4759 16.4784 11.7519 16.4784 8.39153C16.4784 5.03121 13.7543 2.30713 10.394 2.30713C7.03364 2.30713 4.30957 5.03121 4.30957 8.39153C4.30957 11.7519 7.03364 14.4759 10.394 14.4759Z" fill="currentColor" fill-opacity="1.0"/>
</svg>

