<svg width="25" height="25" viewBox="0 0 25 25" fill="none" xmlns="http://www.w3.org/2000/svg">
<circle cx="12.5" cy="12.5" r="12.5" fill="#CEC3FF"/>
<path d="M12.7688 7.56249C12.6673 7.51858 12.5559 7.50238 12.4461 7.51556C12.3363 7.52874 12.232 7.57081 12.1438 7.63749L9.15625 9.99999H6.875C6.70924 9.99999 6.55027 10.0658 6.43306 10.183C6.31585 10.3003 6.25 10.4592 6.25 10.625V14.375C6.25 14.5408 6.31585 14.6997 6.43306 14.8169C6.55027 14.9341 6.70924 15 6.875 15H9.15625L12.1125 17.3625C12.2225 17.4507 12.359 17.4992 12.5 17.5C12.5934 17.5015 12.6857 17.4801 12.7688 17.4375C12.8751 17.3868 12.965 17.3072 13.028 17.2076C13.091 17.1081 13.1247 16.9928 13.125 16.875V8.12499C13.1247 8.00719 13.091 7.89187 13.028 7.79235C12.965 7.69283 12.8751 7.61314 12.7688 7.56249ZM11.875 15.575L9.7625 13.8875C9.65254 13.7993 9.51598 13.7508 9.375 13.75H7.5V11.25H9.375C9.51598 11.2492 9.65254 11.2007 9.7625 11.1125L11.875 9.42499V15.575ZM17.2875 8.96249C17.1698 8.8448 17.0102 8.77868 16.8438 8.77868C16.6773 8.77868 16.5177 8.8448 16.4 8.96249C16.2823 9.08018 16.2162 9.2398 16.2162 9.40624C16.2162 9.57268 16.2823 9.7323 16.4 9.84999C16.768 10.2175 17.0556 10.6574 17.2445 11.142C17.4333 11.6266 17.5193 12.1452 17.4969 12.6647C17.4746 13.1843 17.3444 13.6936 17.1147 14.1602C16.885 14.6268 16.5607 15.0405 16.1625 15.375C16.0658 15.4577 15.9966 15.5679 15.9642 15.691C15.9319 15.814 15.9378 15.944 15.9813 16.0636C16.0248 16.1832 16.1037 16.2867 16.2076 16.3602C16.3114 16.4337 16.4353 16.4737 16.5625 16.475C16.7085 16.4753 16.8501 16.4244 16.9625 16.3312C17.4943 15.8858 17.9277 15.3346 18.2349 14.7126C18.5422 14.0906 18.7166 13.4115 18.7472 12.7184C18.7778 12.0254 18.6638 11.3335 18.4125 10.6869C18.1612 10.0403 17.7781 9.45302 17.2875 8.96249ZM15.5188 10.7312C15.4605 10.673 15.3913 10.6267 15.3152 10.5952C15.239 10.5637 15.1574 10.5474 15.075 10.5474C14.9926 10.5474 14.911 10.5637 14.8348 10.5952C14.7587 10.6267 14.6895 10.673 14.6313 10.7312C14.573 10.7895 14.5268 10.8587 14.4952 10.9348C14.4637 11.011 14.4474 11.0926 14.4474 11.175C14.4474 11.2574 14.4637 11.339 14.4952 11.4151C14.5268 11.4913 14.573 11.5605 14.6313 11.6187C14.866 11.8521 14.9986 12.169 15 12.5C15.0001 12.6821 14.9605 12.862 14.8839 13.0272C14.8072 13.1924 14.6954 13.3388 14.5562 13.4562C14.493 13.5087 14.4406 13.5731 14.4023 13.6459C14.364 13.7186 14.3403 13.7981 14.3328 13.88C14.3252 13.9619 14.3339 14.0444 14.3583 14.1229C14.3827 14.2014 14.4224 14.2743 14.475 14.3375C14.5279 14.4003 14.5927 14.4521 14.6656 14.4899C14.7386 14.5277 14.8182 14.5507 14.9001 14.5577C14.9819 14.5646 15.0643 14.5554 15.1426 14.5305C15.2209 14.5056 15.2935 14.4655 15.3562 14.4125C15.6357 14.1782 15.8605 13.8856 16.0149 13.5552C16.1693 13.2248 16.2495 12.8647 16.25 12.5C16.2465 11.8376 15.984 11.2028 15.5188 10.7312Z" fill="#6949FF"/>
</svg>
