<svg width="25" height="25" viewBox="0 0 25 25" fill="none" xmlns="http://www.w3.org/2000/svg">
<circle cx="12.5" cy="12.5" r="12.5" fill="#CEC3FF"/>
<g clip-path="url(#clip0_402_663)">
<path opacity="0.4" d="M15.5744 18.75C13.8244 18.75 12.3994 17.3313 12.3994 15.575C12.3994 13.825 13.8182 12.4 15.5744 12.4C17.3244 12.4 18.7494 13.8188 18.7494 15.575C18.7494 17.3313 17.3307 18.75 15.5744 18.75Z" fill="#6949FF"/>
<path opacity="0.4" d="M8.1375 6.25H10.5875C11.8812 6.25 12.5062 6.87499 12.475 8.13749V10.5875C12.5062 11.8812 11.8812 12.5062 10.5875 12.475H8.1375C6.875 12.5 6.25 11.875 6.25 10.5812V8.13126C6.25 6.87501 6.875 6.25 8.1375 6.25Z" fill="#6949FF"/>
<path d="M10.6311 10.1625C10.4373 10.1625 10.2561 10.0874 10.0873 9.96244C10.2436 9.71244 10.3561 9.43119 10.4123 9.12494H10.6248C10.8811 9.12494 11.0936 8.91244 11.0936 8.65619C11.0936 8.39994 10.8811 8.18744 10.6248 8.18744H10.0061C9.99981 8.18744 9.99356 8.18744 9.99356 8.18744H9.98106H9.81856C9.79356 7.94994 9.59981 7.76245 9.35606 7.76245C9.11231 7.76245 8.91855 7.94994 8.89355 8.18744H8.08731C7.83106 8.18744 7.61856 8.39994 7.61856 8.65619C7.61856 8.91244 7.83106 9.12494 8.08731 9.12494H9.44356C9.25606 9.72494 8.71855 10.1625 8.08105 10.1625C7.8248 10.1625 7.6123 10.375 7.6123 10.6312C7.6123 10.8875 7.8248 11.1 8.08105 11.1C8.5873 11.1 9.05606 10.9312 9.44356 10.65C9.78731 10.9375 10.1998 11.1 10.6248 11.1C10.8811 11.1 11.0936 10.8875 11.0936 10.6312C11.0936 10.375 10.8873 10.1625 10.6311 10.1625Z" fill="#6949FF"/>
<path d="M10.625 19.2187C7.95625 19.2187 5.78125 17.0437 5.78125 14.375C5.78125 14.1187 5.99375 13.9062 6.25 13.9062C6.50625 13.9062 6.71875 14.1187 6.71875 14.375C6.71875 16.225 8.00625 17.775 9.7375 18.1812L9.56875 17.9C9.4375 17.675 9.50626 17.3875 9.73126 17.2563C9.95001 17.125 10.2438 17.1938 10.375 17.4188L11.0312 18.5125C11.1187 18.6562 11.1188 18.8375 11.0375 18.9812C10.95 19.125 10.7937 19.2187 10.625 19.2187Z" fill="#6949FF"/>
<path d="M18.75 11.0937C18.4938 11.0937 18.2813 10.8812 18.2813 10.625C18.2813 8.775 16.9938 7.225 15.2625 6.81875L15.4313 7.09999C15.5625 7.32499 15.4938 7.61251 15.2688 7.74376C15.05 7.87501 14.7563 7.80626 14.625 7.58125L13.9688 6.4875C13.8813 6.34375 13.8813 6.1625 13.9625 6.01875C14.0438 5.86875 14.2 5.78125 14.3688 5.78125C17.0375 5.78125 19.2125 7.95625 19.2125 10.625C19.2188 10.8812 19.0063 11.0937 18.75 11.0937Z" fill="#6949FF"/>
<path d="M17.3315 16.4563L15.994 13.7875C15.9127 13.6313 15.7502 13.525 15.5752 13.525C15.4002 13.525 15.2377 13.625 15.1565 13.7813L13.819 16.45C13.7002 16.6813 13.794 16.9625 14.0315 17.0813C14.1002 17.1125 14.169 17.1313 14.2377 17.1313C14.4065 17.1313 14.5752 17.0375 14.6565 16.875L14.7627 16.6625H16.3815L16.4877 16.875C16.6065 17.1063 16.8877 17.2 17.119 17.0875C17.3565 16.9688 17.4502 16.6875 17.3315 16.4563ZM15.2377 15.725L15.5814 15.0438L15.9252 15.725H15.2377Z" fill="#6949FF"/>
</g>
<defs>
<clipPath id="clip0_402_663">
<rect width="15" height="15" fill="white" transform="translate(5 5)"/>
</clipPath>
</defs>
</svg>
