<svg width="30" height="30" viewBox="0 0 30 30" fill="none" xmlns="http://www.w3.org/2000/svg">
<circle cx="15" cy="15" r="14.5" fill="white" stroke="url(#paint0_linear_292_680)"/>
<path fill-rule="evenodd" clip-rule="evenodd" d="M9 5.42553C9 5.19052 9.19052 5 9.42553 5H20.234C20.469 5 20.6595 5.19052 20.6595 5.42553V7.21278C20.6595 7.44779 20.469 7.63831 20.234 7.63831H9.42553C9.19052 7.63831 9 7.44779 9 7.21278V5.42553ZM13.5107 16.9004V7.63831H16.149V16.666L17.6999 19.2127H17.7207L17.7126 19.2336L17.7389 19.2767H17.6958L15.4654 25V19.2979H15.4414C15.4496 19.2887 15.4576 19.2793 15.4654 19.2697V19.2127H15.5075C15.5889 19.0911 15.6364 18.9447 15.6364 18.7873C15.6364 18.3643 15.2935 18.0214 14.8704 18.0214C14.4474 18.0214 14.1045 18.3643 14.1045 18.7873C14.1045 18.9447 14.152 19.0911 14.2334 19.2127H14.2742V19.2682C14.2824 19.2783 14.2908 19.2882 14.2995 19.2979H14.2742L14.2742 25L12.0859 19.2767H12.0637L12.0773 19.2542L12.0615 19.2127H12.1026L13.5107 16.9004Z" fill="url(#paint1_linear_292_680)"/>
<defs>
<linearGradient id="paint0_linear_292_680" x1="15" y1="0" x2="15" y2="30" gradientUnits="userSpaceOnUse">
<stop stop-color="#6949FF" stop-opacity="0.7"/>
<stop offset="1" stop-color="#7B60FB" stop-opacity="0.5"/>
</linearGradient>
<linearGradient id="paint1_linear_292_680" x1="14.8298" y1="5" x2="14.8298" y2="25" gradientUnits="userSpaceOnUse">
<stop offset="0.344681" stop-color="#6949FF"/>
<stop offset="1" stop-color="#6949FF" stop-opacity="0"/>
</linearGradient>
</defs>
</svg>
