<svg width="120" height="95" viewBox="0 0 120 95" fill="none" xmlns="http://www.w3.org/2000/svg">
<path d="M99.0088 27.1092L101.16 23.316C99.8259 21.1533 99.3489 18.5698 99.8229 16.0733C100.297 13.5768 101.688 11.3479 103.722 9.82481C105.756 8.30169 108.286 7.59453 110.815 7.84234C113.344 8.09015 115.689 9.275 117.388 11.164C119.088 13.053 120.02 15.5094 120 18.0504C119.98 20.5914 119.011 23.0332 117.282 24.8957C115.554 26.7583 113.191 27.9068 110.658 28.1155C108.126 28.3243 105.607 27.5782 103.597 26.0238L99.0088 27.1092Z" fill="#FAFAFA"/>
<path d="M99.0083 27.1092L103.607 26.0598H103.654L103.624 26.0211L103.58 26.0626C104.223 26.5634 104.924 26.9862 105.667 27.3224C106.548 27.7174 107.48 27.985 108.436 28.117C108.968 28.1917 109.505 28.2186 110.042 28.1973C110.319 28.1973 110.596 28.1752 110.873 28.153L111.731 28.0229C114.286 27.5208 116.554 26.0645 118.074 23.95C118.919 22.7803 119.504 21.4436 119.791 20.0294C120.092 18.5325 120.058 16.9874 119.691 15.5052C119.308 13.9607 118.563 12.5295 117.518 11.3299L117.102 10.8758C116.967 10.7208 116.803 10.5989 116.657 10.455C116.51 10.311 116.36 10.1781 116.194 10.0535L115.707 9.69077C115.547 9.56767 115.379 9.45661 115.203 9.35851L114.688 9.04564L114.151 8.76876C113.971 8.67678 113.787 8.59632 113.597 8.52788C112.152 7.95579 110.598 7.71636 109.048 7.82737C107.581 7.92749 106.155 8.34909 104.87 9.06225C102.563 10.3472 100.838 12.4695 100.052 14.9902C99.7396 16.0628 99.5912 17.1764 99.6119 18.2934C99.6405 19.2621 99.8083 20.2216 100.11 21.1425C100.362 21.908 100.703 22.6412 101.126 23.327V23.2966C99.767 25.7303 99.1052 26.9181 99 27.1037C99.108 26.9209 99.7863 25.7386 101.179 23.327V23.3104C100.763 22.6262 100.427 21.8959 100.18 21.1342C99.8849 20.2187 99.7226 19.2658 99.6977 18.3045C99.681 17.1981 99.8322 16.0955 100.146 15.0345C100.933 12.5375 102.647 10.4375 104.936 9.16747C106.208 8.46611 107.618 8.05215 109.067 7.95474C110.598 7.845 112.134 8.0816 113.561 8.64693C113.745 8.71586 113.924 8.79632 114.098 8.88782L114.627 9.13701L115.134 9.44711C115.308 9.5443 115.474 9.65443 115.632 9.7766L116.114 10.1365C116.277 10.2528 116.416 10.4134 116.568 10.5325C116.72 10.6515 116.875 10.8094 117.008 10.9478L117.418 11.3991C118.453 12.5823 119.191 13.9958 119.569 15.5218C119.937 16.9817 119.978 18.5046 119.691 19.9823C119.409 21.38 118.832 22.7015 117.999 23.8586C116.497 25.9516 114.257 27.3964 111.731 27.9011L110.884 28.0312C110.607 28.0561 110.33 28.0617 110.053 28.0783C109.521 28.1012 108.988 28.0762 108.461 28.0035C107.506 27.8788 106.573 27.6177 105.692 27.2283C104.953 26.8978 104.255 26.4815 103.613 25.9878L103.422 25.8439L103.568 26.0321L103.585 25.9823L99.0083 27.1092Z" fill="#263238"/>
<path d="M112.664 17.9971C112.664 18.2015 112.724 18.4014 112.837 18.5716C112.95 18.7418 113.111 18.8746 113.3 18.9532C113.488 19.0318 113.696 19.0527 113.897 19.0131C114.097 18.9736 114.281 18.8755 114.426 18.7311C114.571 18.5868 114.669 18.4028 114.71 18.2024C114.75 18.002 114.729 17.7942 114.651 17.6053C114.573 17.4164 114.441 17.255 114.271 17.1414C114.101 17.0278 113.901 16.9671 113.697 16.9671C113.561 16.9668 113.427 16.9931 113.302 17.0447C113.177 17.0963 113.063 17.1721 112.967 17.2678C112.871 17.3635 112.795 17.4772 112.743 17.6023C112.691 17.7275 112.664 17.8616 112.664 17.9971Z" fill="#263238"/>
<path d="M108.536 17.9971C108.536 18.2015 108.596 18.4014 108.709 18.5716C108.822 18.7418 108.983 18.8746 109.172 18.9532C109.36 19.0318 109.568 19.0527 109.769 19.0131C109.969 18.9736 110.153 18.8755 110.298 18.7311C110.443 18.5868 110.542 18.4028 110.582 18.2024C110.622 18.002 110.601 17.7942 110.523 17.6053C110.445 17.4164 110.313 17.255 110.143 17.1414C109.973 17.0278 109.773 16.9671 109.569 16.9671C109.433 16.9668 109.299 16.9931 109.174 17.0447C109.049 17.0963 108.935 17.1721 108.839 17.2678C108.743 17.3635 108.667 17.4772 108.615 17.6023C108.563 17.7275 108.536 17.8616 108.536 17.9971Z" fill="#263238"/>
<path d="M104.424 17.4849C104.322 17.6615 104.276 17.8641 104.289 18.0672C104.303 18.2702 104.377 18.4647 104.501 18.6259C104.626 18.7871 104.795 18.9079 104.988 18.973C105.18 19.0381 105.388 19.0446 105.585 18.9917C105.781 18.9388 105.958 18.8289 106.092 18.6758C106.226 18.5227 106.312 18.3332 106.338 18.1314C106.365 17.9296 106.331 17.7245 106.241 17.5419C106.151 17.3593 106.009 17.2075 105.833 17.1056C105.715 17.0377 105.586 16.9936 105.451 16.976C105.317 16.9583 105.18 16.9673 105.049 17.0026C104.918 17.0378 104.796 17.0986 104.688 17.1813C104.581 17.2641 104.491 17.3673 104.424 17.4849Z" fill="#263238"/>
<path d="M79.4774 47.2729L83.9075 54.624C83.9075 54.624 88.6282 62.4624 89.373 64.575C90.1178 66.6876 93.2189 84.9228 93.2244 86.3127C93.2382 89.4442 89.9019 92.2573 87.9083 92.2573C85.9148 92.2573 81.9222 90.5351 78.4447 88.6717C74.9671 86.8084 68.4937 79.28 68.4937 79.28L67.3308 63.1103L65.8135 48.2752L79.4774 47.2729Z" fill="#455A64"/>
<path d="M78.3337 81.4951C78.3221 81.4685 78.3137 81.4406 78.3087 81.412C78.2949 81.3511 78.2755 81.2708 78.2534 81.1711C78.2063 80.9468 78.1371 80.634 78.054 80.2325C77.8824 79.4018 77.6387 78.2334 77.3397 76.7826L76.3041 71.6603C76.1131 70.6968 75.9082 69.6834 75.7006 68.634C75.4751 67.55 75.3069 66.4548 75.1966 65.353C75.1496 64.7854 75.1302 64.2206 75.1385 63.6641C75.1468 63.1075 75.1828 62.5566 75.2105 62.0305C75.2382 61.5044 75.2631 60.9728 75.2548 60.4606L75.2216 60.084C75.2226 59.9618 75.2143 59.8396 75.1966 59.7186C75.1554 59.476 75.0981 59.2364 75.025 59.0014C74.7436 58.1177 74.3725 57.2651 73.9175 56.4569C73.5049 55.6872 73.0868 54.995 72.6881 54.361C71.9018 53.0984 71.2622 52.0767 70.869 51.343C70.6752 50.972 70.5257 50.6868 70.4426 50.4847L70.343 50.2548C70.3208 50.2022 70.3125 50.1745 70.3125 50.1745C70.3295 50.1981 70.3443 50.2231 70.3568 50.2493C70.3845 50.3047 70.4233 50.3794 70.4676 50.4708C70.5617 50.6702 70.7167 50.9526 70.9161 51.3153C71.3231 52.0407 71.9765 53.0513 72.7739 54.3083C73.1671 54.9396 73.6046 55.6291 74.0227 56.3988C74.4851 57.2126 74.8627 58.0717 75.1496 58.9627C75.2232 59.2035 75.2824 59.4485 75.3268 59.6964C75.3542 59.8213 75.3717 59.9481 75.3794 60.0757C75.3794 60.2059 75.4043 60.336 75.4126 60.4634C75.4126 60.9811 75.4126 61.51 75.3711 62.0443C75.3295 62.5787 75.3102 63.1214 75.2991 63.6724C75.288 64.2234 75.3129 64.7799 75.36 65.3337C75.4658 66.4312 75.6276 67.5225 75.8445 68.6036C76.0494 69.653 76.2515 70.6636 76.4398 71.6299C76.8191 73.568 77.1625 75.2957 77.4477 76.7577C77.7328 78.2196 77.9571 79.3908 78.1149 80.2159C78.1897 80.6173 78.2478 80.933 78.2894 81.16C78.3087 81.2597 78.3226 81.3428 78.3309 81.4037C78.3369 81.4338 78.3378 81.4647 78.3337 81.4951Z" fill="#263238"/>
<path d="M83.5387 55.917C83.4742 56.0163 83.4 56.1091 83.3172 56.1939C83.2425 56.2825 83.1483 56.3877 83.0404 56.504C82.9324 56.6203 82.7939 56.7587 82.6389 56.8944C82.2791 57.2223 81.897 57.5248 81.4954 57.7998C81.0013 58.134 80.482 58.4293 79.9421 58.683C79.3999 58.9288 78.8399 59.1334 78.267 59.2949C77.7973 59.4224 77.3189 59.515 76.8355 59.5718C76.6306 59.605 76.4424 59.6133 76.2818 59.6272C76.1419 59.6401 76.0014 59.6457 75.8609 59.6438C75.7412 59.6557 75.6207 59.6557 75.501 59.6438C75.501 59.6161 76.0104 59.6106 76.8245 59.4832C77.2993 59.408 77.769 59.3035 78.231 59.1703C78.7985 59.0046 79.3536 58.7992 79.8923 58.5557C80.4243 58.3028 80.9387 58.0142 81.4317 57.6918C81.8329 57.4258 82.2167 57.1345 82.5808 56.8196C83.1843 56.2853 83.5194 55.8976 83.5387 55.917Z" fill="#263238"/>
<g opacity="0.3">
<path d="M70.8027 51.019C72.1519 54.0406 73.2448 57.1702 74.0699 60.3748C74.859 63.5755 75.1026 66.9728 74.2526 70.1569C73.6989 72.2307 72.9568 74.8057 73.9924 76.6857C73.9038 74.7835 74.3662 70.2898 75.3768 69.4536C76.2766 72.4993 77.1626 77.0345 78.0625 80.094C77.3897 75.2902 76.1022 71.1315 75.4986 66.2889C75.3325 64.9765 75.5512 62.0139 75.3685 60.707C74.8147 56.7476 74.3274 57.1076 70.811 51.0163" fill="black"/>
</g>
<path d="M75.7506 68.7337C75.7727 68.7337 75.5291 69.1795 75.2162 69.916C74.8102 70.8753 74.5067 71.8749 74.3108 72.898C74.1183 73.9218 74.0357 74.9632 74.0644 76.0046C74.0865 76.802 74.153 77.2948 74.1253 77.3003C74.092 77.1883 74.0697 77.0734 74.0588 76.957C74.0089 76.6425 73.9765 76.3254 73.9619 76.0073C73.8464 73.8993 74.2445 71.7947 75.122 69.8745C75.2937 69.509 75.4432 69.221 75.5595 69.0272C75.6118 68.9224 75.6759 68.8239 75.7506 68.7337Z" fill="#263238"/>
<path d="M30.259 65.9539C30.2923 65.976 28.4178 68.9635 26.0754 72.6294C23.733 76.2953 21.8032 79.2468 21.77 79.2274C21.7367 79.208 23.6084 76.2178 25.9536 72.5519C28.2988 68.886 30.2258 65.9345 30.259 65.9539Z" fill="#263238"/>
<path d="M24.8622 47.5608L40.3092 44.7117L56.9523 45.044H61.0751L69.8936 50.8889C69.8936 50.8889 71.5549 74.5149 68.0579 82.0516C66.9033 84.5435 62.3349 92.2629 62.3349 92.2629L27.822 92.3902L18.9619 84.7456L22.2651 70.5943L24.8622 47.5608Z" fill="#455A64"/>
<g opacity="0.3">
<path d="M49.7788 83.4194L49.5961 83.3917C47.9093 84.707 46.6869 86.527 46.1074 88.586C48.4 88.4863 50.424 86.9081 51.645 84.9644C52.866 83.0207 53.3921 80.7365 53.86 78.491C52.6417 80.2547 51.4152 82.0461 49.7788 83.4194Z" fill="black"/>
</g>
<path d="M0.993278 92.2573C-1.03901 91.5402 -0.0810089 79.9888 5.06062 74.4928C5.73343 73.7729 17.1574 52.3287 22.0554 48.8372C25.5994 46.3093 28.8361 47.3033 29.6723 52.3259C30.5085 57.3485 30.2704 65.9539 30.2704 65.9539L21.7591 79.2274L24.3895 80.6617L33.3576 81.2597L31.6824 92.2573H0.993278Z" fill="#455A64"/>
<path d="M31.6939 92.2573C31.6939 92.2573 31.6939 92.2407 31.6939 92.2075L31.7105 92.0607C31.7299 91.9223 31.7548 91.7312 31.788 91.4876C31.86 90.9781 31.9652 90.2499 32.0954 89.3362C32.3722 87.4839 32.7599 84.873 33.2029 81.8051L33.261 81.8799L26.3917 80.9939L24.3788 80.7309H24.3649L22.9612 79.9307C22.496 79.6815 22.0779 79.3769 21.6238 79.1416C20.7703 78.6774 19.876 78.2928 18.952 77.9925C18.1185 77.7304 17.2672 77.5287 16.4047 77.3889C15.6565 77.2785 14.9017 77.2184 14.1454 77.209C13.0563 77.1906 11.9684 77.289 10.9004 77.5025C10.521 77.5634 10.2358 77.6492 10.0393 77.6907L9.81499 77.7406L9.74023 77.7544C9.74023 77.7544 9.76239 77.7544 9.81222 77.7295L10.0337 77.6658C10.2275 77.6132 10.5127 77.5218 10.8893 77.4498C11.9584 77.214 13.0506 77.0989 14.1454 77.1065C14.9069 77.1096 15.6674 77.1651 16.4213 77.2726C17.2916 77.4047 18.1505 77.6028 18.9907 77.8652C19.9236 78.1652 20.8265 78.5518 21.6875 79.0197C22.1499 79.2468 22.568 79.5735 23.0332 79.8089L24.4369 80.598H24.4092L26.4221 80.8582L33.2915 81.7581H33.3579V81.8245C32.8789 84.8896 32.4747 87.4978 32.1867 89.3473C32.04 90.261 31.9099 90.9864 31.8406 91.4931C31.7991 91.7368 31.7659 91.9251 31.7437 92.0635C31.7437 92.1216 31.7216 92.1715 31.716 92.2102C31.7105 92.249 31.6967 92.2601 31.6939 92.2573Z" fill="#263238"/>
<path d="M24.6552 80.7613C24.1738 80.9148 23.703 81.0998 23.2459 81.3151C22.1478 81.8483 21.2167 82.6722 20.5538 83.6972C19.891 84.7223 19.5216 85.9094 19.4859 87.1296C19.4795 87.6348 19.5072 88.1398 19.5689 88.6413C19.5689 88.6413 19.5523 88.6081 19.5357 88.5389C19.5092 88.4413 19.4879 88.3424 19.472 88.2426C19.4077 87.877 19.3781 87.5062 19.3834 87.1351C19.3929 85.8903 19.7572 84.6741 20.4335 83.629C21.1097 82.584 22.07 81.7534 23.2016 81.2348C23.5395 81.0754 23.8918 80.9484 24.2537 80.8555C24.3811 80.8195 24.4835 80.8056 24.55 80.7918C24.6164 80.778 24.6552 80.7613 24.6552 80.7613Z" fill="#263238"/>
<g opacity="0.3">
<path d="M21.8266 79.1388C19.0412 76.1347 14.6056 74.8777 10.7515 76.2399C10.3888 76.3673 9.96516 76.6248 10.0205 77.0041C10.087 77.4831 10.7653 77.5052 11.2388 77.4194C14.839 76.7362 18.5648 77.3451 21.7602 79.1388" fill="black"/>
</g>
<path d="M30.7001 60.2031C30.7001 60.2031 30.7251 60.012 30.7721 59.677C30.8393 59.202 30.8699 58.7225 30.8635 58.2428C30.8547 56.6565 30.4222 55.1014 29.6107 53.7384C28.7992 52.3754 27.6383 51.254 26.2479 50.4902C25.8291 50.2563 25.3932 50.0545 24.9439 49.8866C24.7753 49.8331 24.6098 49.7703 24.4482 49.6983C24.4936 49.7013 24.5384 49.7106 24.5811 49.726C24.7096 49.7546 24.8362 49.7907 24.9605 49.834C25.4221 49.9811 25.8689 50.1711 26.295 50.4016C27.7213 51.1525 28.9123 52.283 29.7365 53.6682C30.5608 55.0534 30.9863 56.6394 30.966 58.2511C30.9627 58.7351 30.9164 59.2178 30.8275 59.6936C30.7998 59.8625 30.7611 59.9899 30.7417 60.0785C30.7337 60.1217 30.7197 60.1637 30.7001 60.2031Z" fill="#263238"/>
<path d="M68.585 55.5958C68.5961 55.6214 68.6036 55.6485 68.6072 55.6761L68.6515 55.9198C68.6903 56.1441 68.7429 56.4569 68.8121 56.8584C68.945 57.6724 69.136 58.8492 69.3465 60.3111C69.5569 61.773 69.7839 63.5146 69.9473 65.461C70.1343 67.5709 70.1926 69.6901 70.1217 71.8071C70.0398 73.9271 69.7664 76.0353 69.3049 78.1061C68.9288 79.7967 68.3881 81.4464 67.6907 83.0317C67.2224 84.1019 66.6668 85.1316 66.0295 86.1106C65.8135 86.465 65.6141 86.7142 65.4923 86.8942C65.4314 86.9772 65.3843 87.0437 65.3456 87.0935C65.3308 87.1177 65.3131 87.14 65.293 87.16C65.293 87.16 65.293 87.1323 65.3345 87.0852L65.4674 86.8776C65.5809 86.6948 65.7747 86.4373 65.9824 86.0829C66.5954 85.0938 67.1331 84.06 67.5911 82.9902C68.2726 81.406 68.8011 79.7604 69.1693 78.0756C69.6222 76.0122 69.89 73.9125 69.9694 71.8015C70.1383 67.305 69.6233 63.2432 69.2385 60.3249C69.0336 58.8713 68.8675 57.6918 68.7484 56.8667C68.693 56.4652 68.6487 56.1496 68.6183 55.9253L68.585 55.6789C68.582 55.6513 68.582 55.6234 68.585 55.5958Z" fill="#263238"/>
<path d="M77.6114 91.3298H39.0811V94.0653H77.6114V91.3298Z" fill="#EBEBEB"/>
<path d="M86.837 87.4064L47.2213 88.3893L40.698 90.3053L39.0811 91.3298H77.6114L81.0502 92.4539L85.9704 90.9892L86.837 87.4064Z" fill="white"/>
<path d="M77.6107 91.3298C77.6107 91.3298 81.8885 91.9888 83.5663 91.3298C85.2442 90.6708 86.8252 87.4064 86.8252 87.4064L87.0135 92.4539L77.5996 94.0653L77.6107 91.3298Z" fill="#E0E0E0"/>
<path d="M77.6084 91.3131C77.6854 91.7703 77.7132 92.2344 77.6915 92.6975C77.7216 93.1598 77.7012 93.6241 77.6306 94.0819C77.5569 93.6244 77.5291 93.1606 77.5475 92.6975C77.5208 92.2352 77.5412 91.7713 77.6084 91.3131Z" fill="#263238"/>
<path d="M86.651 87.9602C86.6484 87.9964 86.64 88.0319 86.626 88.0654C86.5984 88.1593 86.5661 88.2517 86.5291 88.3423C86.3882 88.6901 86.2021 89.0178 85.9754 89.3169C85.2102 90.3055 84.1504 91.0251 82.9491 91.3713C81.7542 91.6986 80.5061 91.7843 79.2777 91.6233C78.807 91.5679 78.4305 91.5015 78.1702 91.4461C78.0342 91.4252 77.9007 91.3909 77.7715 91.3436C77.9081 91.35 78.0441 91.3658 78.1785 91.3907C78.4388 91.4267 78.8181 91.4793 79.286 91.5208C80.4999 91.6548 81.7282 91.5609 82.9076 91.244C84.081 90.9034 85.1237 90.2151 85.8979 89.2698C86.2003 88.8649 86.4531 88.4252 86.651 87.9602Z" fill="#263238"/>
<path d="M83.1984 91.8974C82.9593 92.0101 82.7086 92.0965 82.4508 92.1549C81.2222 92.4958 79.957 92.6873 78.6825 92.7252C78.4185 92.746 78.1531 92.7385 77.8906 92.7031C78.1502 92.656 78.4132 92.6301 78.677 92.6256C79.1615 92.5868 79.8288 92.5231 80.5625 92.4124C81.2962 92.3016 81.9469 92.1632 82.4259 92.0552C82.6795 91.985 82.9376 91.9323 83.1984 91.8974Z" fill="#263238"/>
<path d="M83.0375 92.9883C82.7871 93.0511 82.5312 93.0891 82.2734 93.1018C81.7971 93.1489 81.1382 93.1959 80.4072 93.2181C79.6762 93.2402 79.0228 93.2319 78.541 93.2181C78.2818 93.2221 78.0229 93.1989 77.7686 93.1489C78.0248 93.1182 78.2831 93.108 78.541 93.1184C79.02 93.1184 79.6762 93.1046 80.4044 93.0824C81.1326 93.0603 81.7888 93.0298 82.2651 93.0077C82.5214 92.9774 82.78 92.9709 83.0375 92.9883Z" fill="#263238"/>
<path d="M75.8001 94.2093C75.5994 94.1687 75.417 94.0649 75.2796 93.9131C75.0951 93.7457 74.9528 93.537 74.8644 93.3041C74.776 93.0712 74.744 92.8207 74.771 92.573C74.798 92.3253 74.8833 92.0876 75.0198 91.8792C75.1563 91.6708 75.3402 91.4977 75.5565 91.3741C75.725 91.2582 75.9252 91.1973 76.1296 91.1996C75.9525 91.277 75.7796 91.3639 75.6119 91.4599C75.4228 91.5883 75.2627 91.7549 75.142 91.949C75.0214 92.1431 74.9428 92.3604 74.9114 92.5868C74.8909 92.8147 74.9191 93.0444 74.9941 93.2606C75.069 93.4768 75.189 93.6747 75.3461 93.8411C75.488 93.975 75.6398 94.0981 75.8001 94.2093Z" fill="#263238"/>
<path d="M75.4267 94.3284C75.2381 94.2864 75.0658 94.1901 74.9311 94.0515C74.57 93.7537 74.3391 93.3269 74.2874 92.8617C74.2357 92.3965 74.3673 91.9294 74.6543 91.5596C74.7581 91.4006 74.9037 91.2732 75.0751 91.1913C75.0917 91.2107 74.9201 91.3381 74.7373 91.6177C74.4945 91.9788 74.3889 92.4149 74.4397 92.8471C74.4905 93.2793 74.6943 93.679 75.0142 93.974C75.2385 94.2232 75.4378 94.309 75.4267 94.3284Z" fill="#263238"/>
<path d="M73.3939 94.2093C73.1931 94.1688 73.0107 94.0649 72.8733 93.9131C72.6882 93.746 72.5455 93.5374 72.4567 93.3044C72.368 93.0714 72.3358 92.8207 72.3628 92.5728C72.3898 92.325 72.4753 92.087 72.6122 91.8787C72.7491 91.6703 72.9335 91.4973 73.1502 91.3741C73.3185 91.2579 73.5188 91.1969 73.7233 91.1997C73.5448 91.276 73.371 91.3629 73.2028 91.4599C73.0087 91.5829 72.8446 91.7477 72.7224 91.9423C72.6002 92.1368 72.523 92.3562 72.4964 92.5845C72.4699 92.8127 72.4947 93.044 72.569 93.2614C72.6433 93.4788 72.7653 93.6768 72.9259 93.8411C73.0723 93.9755 73.2288 94.0986 73.3939 94.2093Z" fill="#263238"/>
<path d="M73.0205 94.3284C72.8318 94.2864 72.6596 94.1901 72.5249 94.0515C72.1637 93.7537 71.9328 93.3269 71.8811 92.8617C71.8294 92.3964 71.961 91.9294 72.248 91.5596C72.3517 91.3994 72.4986 91.2717 72.6716 91.1913C72.6855 91.2107 72.5138 91.3381 72.3311 91.6177C72.0882 91.9788 71.9826 92.4149 72.0334 92.8471C72.0842 93.2793 72.288 93.679 72.608 93.974C72.835 94.2231 73.0316 94.309 73.0205 94.3284Z" fill="#263238"/>
<path d="M70.9886 94.2093C70.7879 94.1687 70.6054 94.0649 70.4681 93.9131C70.283 93.746 70.1402 93.5374 70.0514 93.3044C69.9627 93.0714 69.9305 92.8207 69.9575 92.5728C69.9846 92.3249 70.07 92.087 70.2069 91.8786C70.3438 91.6703 70.5282 91.4973 70.7449 91.3741C70.9133 91.2579 71.1135 91.1969 71.3181 91.1997C71.1395 91.276 70.9657 91.3629 70.7975 91.4599C70.6035 91.5829 70.4393 91.7477 70.3171 91.9423C70.1949 92.1368 70.1177 92.3562 70.0912 92.5845C70.0646 92.8127 70.0894 93.044 70.1637 93.2614C70.238 93.4788 70.36 93.6768 70.5207 93.8411C70.6671 93.9755 70.8235 94.0986 70.9886 94.2093Z" fill="#263238"/>
<path d="M70.6143 94.3284C70.4258 94.2858 70.2537 94.1896 70.1186 94.0515C69.7575 93.7537 69.5266 93.3269 69.4749 92.8617C69.4232 92.3965 69.5548 91.9294 69.8418 91.5596C69.9455 91.3994 70.0923 91.2718 70.2654 91.1913C70.2792 91.2107 70.1076 91.3381 69.9248 91.6177C69.682 91.9788 69.5764 92.4149 69.6272 92.8471C69.678 93.2793 69.8818 93.679 70.2017 93.974C70.4287 94.2232 70.6253 94.309 70.6143 94.3284Z" fill="#263238"/>
<path d="M68.5851 94.2093C68.3832 94.1699 68.1995 94.0659 68.0618 93.9131C67.8767 93.746 67.7339 93.5374 67.6452 93.3044C67.5564 93.0714 67.5242 92.8207 67.5513 92.5728C67.5783 92.325 67.6638 92.087 67.8007 91.8787C67.9376 91.6703 68.1219 91.4973 68.3387 91.3741C68.507 91.2579 68.7073 91.1969 68.9118 91.1997C68.734 91.2757 68.5611 91.3626 68.3941 91.4599C68.1992 91.5822 68.0342 91.7467 67.9114 91.9413C67.7886 92.1359 67.711 92.3555 67.6844 92.5841C67.6578 92.8126 67.6829 93.0442 67.7578 93.2618C67.8327 93.4794 67.9555 93.6773 68.1172 93.8411C68.2621 93.9772 68.4187 94.1004 68.5851 94.2093Z" fill="#263238"/>
<path d="M68.2083 94.3284C68.0205 94.286 67.8492 94.1898 67.7154 94.0515C67.3537 93.7541 67.1223 93.3272 67.0706 92.8618C67.0189 92.3964 67.1509 91.9291 67.4385 91.5596C67.5423 91.3994 67.6891 91.2717 67.8622 91.1913C67.8788 91.2107 67.7043 91.3381 67.5216 91.6177C67.2787 91.9788 67.1732 92.4149 67.2239 92.8471C67.2747 93.2793 67.4785 93.679 67.7985 93.974C68.0227 94.2231 68.2193 94.309 68.2083 94.3284Z" fill="#263238"/>
<path d="M66.179 94.2093C65.9778 94.1701 65.795 94.066 65.6585 93.9131C65.474 93.7457 65.3317 93.537 65.2433 93.3041C65.1549 93.0712 65.1229 92.8207 65.1499 92.573C65.1769 92.3253 65.2622 92.0876 65.3987 91.8792C65.5352 91.6708 65.7191 91.4977 65.9354 91.3741C66.1039 91.2582 66.3041 91.1973 66.5085 91.1996C66.3308 91.2757 66.1578 91.3626 65.9908 91.4599C65.7959 91.5822 65.6309 91.7467 65.5081 91.9413C65.3853 92.1358 65.3077 92.3555 65.2811 92.5841C65.2546 92.8126 65.2796 93.0442 65.3545 93.2618C65.4294 93.4793 65.5523 93.6773 65.7139 93.8411C65.858 93.9771 66.0136 94.1003 66.179 94.2093Z" fill="#263238"/>
<path d="M65.8021 94.3284C65.6144 94.286 65.4431 94.1898 65.3093 94.0515C64.9505 93.7528 64.7205 93.3275 64.6669 92.8637C64.6192 92.3997 64.7487 91.9348 65.0297 91.5624C65.1342 91.4029 65.2808 91.2754 65.4533 91.1941C65.4699 91.2135 65.2955 91.3409 65.1127 91.6205C64.8682 91.98 64.7603 92.4151 64.8085 92.8473C64.8568 93.2794 65.058 93.68 65.3758 93.9767C65.6166 94.2232 65.8132 94.309 65.8021 94.3284Z" fill="#263238"/>
<path d="M63.7728 94.2093C63.5718 94.1695 63.3891 94.0655 63.2523 93.9131C63.0677 93.7457 62.9255 93.537 62.8371 93.3041C62.7487 93.0712 62.7167 92.8207 62.7437 92.573C62.7707 92.3253 62.8559 92.0876 62.9925 91.8792C63.129 91.6708 63.3129 91.4977 63.5291 91.3741C63.6976 91.2582 63.8978 91.1973 64.1023 91.1996C63.9248 91.2764 63.7519 91.3633 63.5845 91.4599C63.3896 91.5822 63.2247 91.7467 63.1018 91.9413C62.979 92.1358 62.9015 92.3555 62.8749 92.5841C62.8483 92.8126 62.8734 93.0442 62.9483 93.2618C63.0232 93.4793 63.146 93.6773 63.3076 93.8411C63.4517 93.9771 63.6073 94.1003 63.7728 94.2093Z" fill="#263238"/>
<path d="M63.3956 94.3284C63.2078 94.286 63.0366 94.1898 62.9027 94.0515C62.5422 93.7533 62.3117 93.3266 62.2601 92.8616C62.2084 92.3965 62.3396 91.9296 62.6259 91.5596C62.7304 91.4001 62.877 91.2726 63.0495 91.1913C63.0661 91.2107 62.8917 91.3381 62.7089 91.6177C62.4644 91.9772 62.3565 92.4124 62.4047 92.8445C62.453 93.2766 62.6542 93.6772 62.972 93.974C63.2101 94.2231 63.4067 94.309 63.3956 94.3284Z" fill="#263238"/>
<path d="M61.3665 94.2093C61.1655 94.1695 60.9829 94.0655 60.846 93.9131C60.6615 93.7457 60.5192 93.537 60.4308 93.3041C60.3424 93.0712 60.3104 92.8207 60.3374 92.573C60.3644 92.3253 60.4497 92.0876 60.5862 91.8792C60.7227 91.6708 60.9066 91.4977 61.1229 91.3741C61.2914 91.2582 61.4916 91.1973 61.696 91.1996C61.5186 91.2764 61.3457 91.3633 61.1783 91.4599C60.9842 91.5829 60.8201 91.7477 60.6978 91.9423C60.5756 92.1368 60.4984 92.3562 60.4719 92.5844C60.4454 92.8127 60.4701 93.0439 60.5445 93.2614C60.6188 93.4788 60.7407 93.6768 60.9014 93.8411C61.0462 93.9762 61.2017 94.0994 61.3665 94.2093Z" fill="#263238"/>
<path d="M60.9903 94.3284C60.8026 94.286 60.6313 94.1898 60.4975 94.0515C60.1369 93.7533 59.9064 93.3266 59.8548 92.8616C59.8031 92.3965 59.9343 91.9296 60.2206 91.5596C60.3251 91.4001 60.4717 91.2726 60.6442 91.1913C60.6608 91.2107 60.4864 91.3381 60.3037 91.6177C60.0661 91.9802 59.9596 92.413 60.0019 92.8443C60.0508 93.2734 60.2464 93.6724 60.5556 93.974C60.7993 94.2231 61.0042 94.309 60.9903 94.3284Z" fill="#263238"/>
<path d="M58.9603 94.2093C58.7596 94.1687 58.5771 94.0649 58.4398 93.9131C58.2552 93.7457 58.113 93.537 58.0246 93.3041C57.9362 93.0712 57.9042 92.8207 57.9312 92.573C57.9582 92.3253 58.0434 92.0876 58.18 91.8792C58.3165 91.6708 58.5004 91.4977 58.7166 91.3741C58.8851 91.2582 59.0853 91.1973 59.2898 91.1996C59.1123 91.2764 58.9394 91.3633 58.772 91.4599C58.5779 91.5829 58.4138 91.7477 58.2916 91.9423C58.1694 92.1368 58.0922 92.3562 58.0656 92.5844C58.0391 92.8127 58.0639 93.0439 58.1382 93.2614C58.2125 93.4788 58.3345 93.6768 58.4951 93.8411C58.6399 93.9762 58.7955 94.0994 58.9603 94.2093Z" fill="#263238"/>
<path d="M58.5839 94.3284C58.3952 94.2864 58.223 94.1901 58.0883 94.0515C57.7277 93.7533 57.4973 93.3266 57.4456 92.8616C57.3939 92.3966 57.5251 91.9297 57.8114 91.5596C57.9159 91.4001 58.0625 91.2726 58.235 91.1913C58.2516 91.2107 58.0772 91.3381 57.8945 91.6177C57.6522 91.979 57.5469 92.415 57.5977 92.847C57.6485 93.279 57.8519 93.6787 58.1713 93.974C58.3984 94.2232 58.5977 94.309 58.5839 94.3284Z" fill="#263238"/>
<path d="M56.555 94.2093C56.3543 94.1687 56.1719 94.0649 56.0345 93.9131C55.85 93.7457 55.7077 93.537 55.6193 93.3041C55.5309 93.0712 55.4989 92.8207 55.5259 92.573C55.5529 92.3254 55.6382 92.0876 55.7747 91.8792C55.9112 91.6708 56.0951 91.4977 56.3114 91.3741C56.4799 91.2584 56.6801 91.1975 56.8845 91.1996C56.7074 91.277 56.5345 91.3639 56.3667 91.4599C56.1727 91.5829 56.0085 91.7477 55.8863 91.9423C55.7641 92.1368 55.6869 92.3562 55.6604 92.5844C55.6338 92.8127 55.6586 93.0439 55.7329 93.2614C55.8072 93.4788 55.9292 93.6768 56.0899 93.8411C56.2354 93.9754 56.3909 94.0985 56.555 94.2093Z" fill="#263238"/>
<path d="M56.1807 94.3284C55.992 94.2864 55.8197 94.1901 55.685 94.0515C55.3239 93.7537 55.093 93.3269 55.0413 92.8617C54.9896 92.3964 55.1212 91.9294 55.4082 91.5596C55.512 91.4006 55.6576 91.2732 55.829 91.1913C55.8456 91.2107 55.674 91.3381 55.4912 91.6177C55.2467 91.9772 55.1388 92.4124 55.187 92.8445C55.2353 93.2766 55.4365 93.6772 55.7543 93.974C55.9952 94.2231 56.1917 94.309 56.1807 94.3284Z" fill="#263238"/>
<path d="M54.1536 94.2093C53.9529 94.1687 53.7705 94.0649 53.6331 93.9131C53.448 93.746 53.3052 93.5374 53.2165 93.3044C53.1277 93.0714 53.0955 92.8207 53.1226 92.5728C53.1496 92.3249 53.2351 92.087 53.372 91.8786C53.5088 91.6703 53.6932 91.4973 53.91 91.3741C54.0783 91.2579 54.2786 91.1969 54.4831 91.1997C54.3046 91.276 54.1307 91.3629 53.9626 91.4599C53.7685 91.5829 53.6044 91.7477 53.4821 91.9423C53.3599 92.1368 53.2827 92.3562 53.2562 92.5845C53.2297 92.8127 53.2545 93.044 53.3288 93.2614C53.4031 93.4788 53.525 93.6768 53.6857 93.8411C53.8321 93.9755 53.9885 94.0986 54.1536 94.2093Z" fill="#263238"/>
<path d="M53.7744 94.3284C53.586 94.2858 53.4139 94.1896 53.2788 94.0515C52.9176 93.7537 52.6867 93.3269 52.635 92.8617C52.5833 92.3965 52.7149 91.9294 53.0019 91.5596C53.1056 91.3994 53.2525 91.2718 53.4255 91.1913C53.4255 91.2107 53.2677 91.3381 53.085 91.6177C52.8421 91.9788 52.7365 92.4149 52.7873 92.8471C52.8381 93.2793 53.0419 93.679 53.3619 93.974C53.6 94.2232 53.7855 94.309 53.7744 94.3284Z" fill="#263238"/>
<path d="M51.7425 94.2093C51.5418 94.1687 51.3593 94.0649 51.222 93.9131C51.0369 93.746 50.8941 93.5374 50.8053 93.3044C50.7166 93.0714 50.6844 92.8207 50.7114 92.5728C50.7385 92.3249 50.8239 92.087 50.9608 91.8786C51.0977 91.6703 51.2821 91.4973 51.4988 91.3741C51.6672 91.2579 51.8675 91.1969 52.072 91.1997C51.8942 91.2757 51.7213 91.3626 51.5542 91.4599C51.3597 91.5826 51.1952 91.7472 51.0727 91.9418C50.9501 92.1363 50.8728 92.3559 50.8462 92.5843C50.8197 92.8127 50.8446 93.0441 50.9192 93.2616C50.9938 93.4791 51.1162 93.6771 51.2773 93.8411C51.4228 93.9754 51.5783 94.0985 51.7425 94.2093Z" fill="#263238"/>
<path d="M51.3682 94.3284C51.1797 94.2858 51.0076 94.1896 50.8725 94.0515C50.5114 93.7537 50.2805 93.3269 50.2288 92.8617C50.1771 92.3964 50.3087 91.9294 50.5957 91.5596C50.6994 91.3994 50.8462 91.2717 51.0193 91.1913C51.0359 91.2107 50.8615 91.3381 50.6787 91.6177C50.4359 91.9788 50.3303 92.4149 50.3811 92.8471C50.4319 93.2793 50.6357 93.679 50.9556 93.974C51.1827 94.2231 51.3848 94.309 51.3682 94.3284Z" fill="#263238"/>
<path d="M49.339 94.2093C49.1371 94.1699 48.9534 94.0659 48.8157 93.9131C48.6306 93.746 48.4878 93.5374 48.3991 93.3044C48.3103 93.0714 48.2782 92.8207 48.3052 92.5728C48.3322 92.325 48.4177 92.087 48.5546 91.8787C48.6915 91.6703 48.8758 91.4973 49.0926 91.3741C49.2609 91.2579 49.4612 91.1969 49.6657 91.1997C49.488 91.2757 49.315 91.3626 49.148 91.4599C48.9531 91.5822 48.7881 91.7467 48.6653 91.9413C48.5425 92.1359 48.4649 92.3555 48.4383 92.5841C48.4117 92.8126 48.4368 93.0442 48.5117 93.2618C48.5866 93.4794 48.7094 93.6773 48.8711 93.8411C49.016 93.9772 49.1726 94.1004 49.339 94.2093Z" fill="#263238"/>
<path d="M48.9623 94.3284C48.7746 94.286 48.6033 94.1898 48.4695 94.0515C48.1107 93.7524 47.8799 93.3274 47.8244 92.8637C47.7787 92.3994 47.9092 91.935 48.1898 91.5624C48.2935 91.4022 48.4404 91.2745 48.6135 91.1941C48.6301 91.2135 48.4556 91.3409 48.2729 91.6205C48.03 91.9816 47.9245 92.4177 47.9752 92.8499C48.026 93.282 48.2298 93.6818 48.5498 93.9767C48.7768 94.2232 48.9734 94.309 48.9623 94.3284Z" fill="#263238"/>
<path d="M46.9333 94.2093C46.7281 94.1723 46.5411 94.0681 46.4017 93.9131C46.2172 93.7457 46.0749 93.537 45.9865 93.3041C45.8981 93.0712 45.8661 92.8207 45.8931 92.573C45.9201 92.3253 46.0053 92.0876 46.1419 91.8792C46.2784 91.6708 46.4623 91.4977 46.6786 91.3741C46.847 91.2582 47.0472 91.1973 47.2517 91.1996C47.0739 91.2757 46.901 91.3626 46.7339 91.4599C46.539 91.5822 46.3741 91.7467 46.2513 91.9413C46.1284 92.1358 46.0509 92.3555 46.0243 92.5841C45.9977 92.8126 46.0228 93.0442 46.0977 93.2618C46.1726 93.4793 46.2954 93.6773 46.457 93.8411C46.6046 93.9776 46.764 94.1008 46.9333 94.2093Z" fill="#263238"/>
<path d="M46.557 94.3284C46.3693 94.286 46.198 94.1898 46.0642 94.0515C45.7054 93.7528 45.4753 93.3275 45.4218 92.8637C45.374 92.3997 45.5036 91.9348 45.7845 91.5624C45.889 91.4029 46.0357 91.2754 46.2082 91.1941C46.2248 91.2135 46.0503 91.3409 45.8676 91.6205C45.6248 91.9816 45.5192 92.4177 45.5699 92.8499C45.6207 93.282 45.8245 93.6818 46.1445 93.9767C46.3715 94.2232 46.5681 94.309 46.557 94.3284Z" fill="#263238"/>
<path d="M44.5267 94.2093C44.3257 94.1695 44.1431 94.0655 44.0062 93.9131C43.8216 93.7457 43.6794 93.537 43.591 93.3041C43.5026 93.0712 43.4706 92.8207 43.4976 92.573C43.5246 92.3253 43.6098 92.0876 43.7464 91.8792C43.8829 91.6708 44.0668 91.4977 44.283 91.3741C44.4515 91.2582 44.6517 91.1973 44.8562 91.1996C44.6787 91.2764 44.5058 91.3633 44.3384 91.4599C44.1443 91.5829 43.9802 91.7477 43.858 91.9423C43.7358 92.1368 43.6586 92.3562 43.6321 92.5844C43.6055 92.8127 43.6303 93.0439 43.7046 93.2614C43.7789 93.4788 43.9009 93.6768 44.0615 93.8411C44.2063 93.9762 44.3619 94.0994 44.5267 94.2093Z" fill="#263238"/>
<path d="M44.1505 94.3284C43.9627 94.286 43.7914 94.1898 43.6576 94.0515C43.2971 93.7533 43.0666 93.3266 43.0149 92.8616C42.9633 92.3966 43.0944 91.9297 43.3807 91.5596C43.4852 91.4001 43.6319 91.2726 43.8044 91.1913C43.821 91.2107 43.6465 91.3381 43.4638 91.6177C43.2226 91.9794 43.118 92.4151 43.1688 92.8468C43.2195 93.2785 43.4222 93.6781 43.7407 93.974C43.965 94.2232 44.1615 94.309 44.1505 94.3284Z" fill="#263238"/>
<path d="M42.1204 94.2093C41.9195 94.1695 41.7368 94.0655 41.5999 93.9131C41.4154 93.7457 41.2731 93.537 41.1847 93.3041C41.0963 93.0712 41.0643 92.8207 41.0913 92.573C41.1183 92.3253 41.2036 92.0876 41.3401 91.8792C41.4766 91.6708 41.6605 91.4977 41.8768 91.3741C42.0453 91.2582 42.2455 91.1973 42.4499 91.1996C42.2725 91.2764 42.0996 91.3633 41.9322 91.4599C41.7381 91.5829 41.574 91.7477 41.4517 91.9423C41.3295 92.1368 41.2523 92.3562 41.2258 92.5844C41.1993 92.8127 41.2241 93.0439 41.2984 93.2614C41.3727 93.4788 41.4946 93.6768 41.6553 93.8411C41.8001 93.9762 41.9556 94.0994 42.1204 94.2093Z" fill="#263238"/>
<path d="M41.7442 94.3284C41.5565 94.286 41.3852 94.1898 41.2514 94.0515C40.8908 93.7533 40.6604 93.3266 40.6087 92.8616C40.557 92.3965 40.6882 91.9296 40.9745 91.5596C41.079 91.4001 41.2256 91.2726 41.3981 91.1913C41.4147 91.2107 41.2403 91.3381 41.0576 91.6177C40.82 91.9802 40.7135 92.413 40.7558 92.8443C40.8084 93.2752 41.0091 93.6745 41.3234 93.974C41.5587 94.2231 41.7581 94.309 41.7442 94.3284Z" fill="#263238"/>
<path d="M39.7147 94.2093C39.517 94.1671 39.3377 94.0634 39.2025 93.9131C39.0179 93.7457 38.8757 93.537 38.7873 93.3041C38.6989 93.0712 38.6669 92.8207 38.6939 92.573C38.7209 92.3253 38.8061 92.0876 38.9426 91.8792C39.0792 91.6708 39.2631 91.4977 39.4793 91.3741C39.6478 91.2582 39.848 91.1973 40.0525 91.1996C39.875 91.2764 39.7021 91.3633 39.5347 91.4599C39.3406 91.5829 39.1765 91.7477 39.0543 91.9423C38.9321 92.1368 38.8549 92.3562 38.8283 92.5844C38.8018 92.8127 38.8266 93.0439 38.9009 93.2614C38.9752 93.4788 39.0972 93.6768 39.2578 93.8411C39.4 93.9759 39.5528 94.099 39.7147 94.2093Z" fill="#263238"/>
<path d="M39.3417 94.3284C39.153 94.2864 38.9808 94.1901 38.8461 94.0515C38.4856 93.7533 38.2551 93.3266 38.2034 92.8616C38.1517 92.3966 38.2829 91.9297 38.5692 91.5596C38.6737 91.4001 38.8203 91.2726 38.9928 91.1913C39.0095 91.2107 38.8378 91.3381 38.6551 91.6177C38.4122 91.9788 38.3066 92.4149 38.3574 92.8471C38.4082 93.2793 38.612 93.679 38.9319 93.974C39.1534 94.2232 39.3528 94.309 39.3417 94.3284Z" fill="#263238"/>
<path d="M33.5577 72.9229C36.9522 76.1901 48.9466 87.6722 48.9466 87.6722L51.3693 88.5638L50.6189 86.058L35.2771 71.1453C35.1598 71.0309 35.021 70.941 34.8686 70.8807C34.7163 70.8204 34.5535 70.7909 34.3897 70.794C34.2259 70.7971 34.0643 70.8327 33.9144 70.8987C33.7644 70.9647 33.6291 71.0598 33.5162 71.1786C33.2906 71.4155 33.1683 71.7323 33.1761 72.0593C33.1839 72.3864 33.3211 72.6969 33.5577 72.9229Z" fill="#FF725E"/>
<path d="M50.3803 84.5047L46.7809 79.9307L39.7815 78.0701L33.2721 82.2648L31.9375 90.8674C31.9375 90.8674 33.3717 90.8674 34.0695 90.8176C34.5263 90.7843 38.0399 90.3275 38.0399 90.3275C38.0399 90.3275 40.9554 90.2915 42.2706 90.0091C43.5858 89.7266 44.0703 89.1397 45.0006 89.1397C45.9309 89.1397 46.1746 88.0654 46.1746 88.0654C46.7676 87.8716 47.3377 87.6135 47.8746 87.2957C48.5613 86.8527 48.5613 85.8005 48.5613 85.8005C48.5613 85.8005 48.9267 85.9611 49.857 85.8005C50.7874 85.6399 50.3803 84.5047 50.3803 84.5047Z" fill="#FFBE9D"/>
<path d="M48.6494 85.5679C48.5678 85.4988 48.4953 85.4198 48.4334 85.3326L47.8797 84.6681C47.2867 83.929 46.5549 83.3129 45.7256 82.8545C44.8682 82.4463 43.959 82.1575 43.0232 81.9962L42.1732 81.8328C42.0666 81.8189 41.9618 81.7938 41.8604 81.7581C41.9678 81.751 42.0757 81.7575 42.1815 81.7775C42.3836 81.7996 42.6799 81.8384 43.0426 81.8965C43.9965 82.0295 44.9241 82.3097 45.792 82.7272C46.6394 83.1925 47.3783 83.8323 47.96 84.6044C48.1898 84.8813 48.3642 85.1305 48.4833 85.2994C48.5472 85.3833 48.6028 85.4732 48.6494 85.5679Z" fill="#EB996E"/>
<path d="M46.6264 87.4895C46.5208 87.2183 46.3506 86.9769 46.1308 86.7862C45.7238 86.429 44.9817 86.2158 44.2092 85.9002C43.4367 85.5845 42.7252 85.3077 42.2185 85.0945C41.9382 84.9936 41.6668 84.8695 41.4072 84.7235C41.697 84.7915 41.9804 84.8841 42.2545 85.0003C42.7695 85.1886 43.481 85.4572 44.2618 85.7645C44.6495 85.9196 45.0205 86.0636 45.3694 86.2048C45.6737 86.3239 45.9548 86.4954 46.2 86.7114C46.367 86.8592 46.4969 87.0442 46.5793 87.2514C46.6167 87.3249 46.633 87.4073 46.6264 87.4895Z" fill="#EB996E"/>
<path d="M44.6128 88.896C44.4029 88.8912 44.1944 88.8595 43.9926 88.8019C43.6132 88.7243 43.0927 88.5942 42.5251 88.4253C41.9575 88.2564 41.4536 88.0764 41.0936 87.9352C40.8914 87.8682 40.6987 87.7752 40.5205 87.6584C40.728 87.6918 40.9313 87.7475 41.1269 87.8245C41.4951 87.9435 42.0018 88.1014 42.5666 88.273C43.1315 88.4447 43.6437 88.5859 44.0175 88.6911C44.2228 88.7373 44.4225 88.806 44.6128 88.896Z" fill="#EB996E"/>
<path d="M53.2865 88.5582C53.1418 88.684 52.9818 88.791 52.8103 88.8766C52.5057 89.0538 52.0793 89.2919 51.5975 89.5356C51.1158 89.7793 50.6755 89.9897 50.3516 90.1309C50.1827 90.2213 50.0018 90.2875 49.8145 90.3275C50.3696 89.9902 50.9427 89.6834 51.5311 89.4082C52.0995 89.0916 52.6856 88.8077 53.2865 88.5582Z" fill="#263238"/>
<path d="M55.2261 88.3949C54.6441 88.8056 54.0345 89.1756 53.4015 89.5024C52.7928 89.8727 52.159 90.2002 51.5049 90.4825C52.088 90.0736 52.6976 89.7036 53.3295 89.375C53.9397 89.0074 54.5733 88.68 55.2261 88.3949Z" fill="#263238"/>
<path d="M55.9146 88.5139C55.4914 88.8848 55.0376 89.2192 54.5579 89.5135C54.1035 89.8459 53.6219 90.1395 53.1182 90.3912C53.542 90.0199 53.9968 89.6855 54.4776 89.3916C54.9309 89.0589 55.4116 88.7653 55.9146 88.5139Z" fill="#263238"/>
<path d="M59.4144 88.3949C58.8414 88.8309 58.2402 89.2286 57.6147 89.5854C57.0145 89.9825 56.3883 90.3386 55.7402 90.6514C56.3136 90.2158 56.9148 89.8181 57.5399 89.4609C58.1409 89.0652 58.7671 88.7091 59.4144 88.3949Z" fill="#263238"/>
<path d="M60.6411 88.4502C60.6577 88.489 59.852 88.8849 58.9134 89.4719C57.9748 90.0589 57.266 90.6043 57.2383 90.5794C57.3634 90.4256 57.5098 90.2905 57.673 90.178C58.0452 89.8789 58.4344 89.6015 58.8386 89.3473C59.2418 89.0954 59.6597 88.868 60.0901 88.6662C60.2631 88.5695 60.4485 88.4968 60.6411 88.4502Z" fill="#263238"/>
<path d="M61.9506 88.2924C61.4359 88.7169 60.8918 89.1045 60.3226 89.4525C59.7791 89.8404 59.2081 90.1884 58.6143 90.4936C59.1299 90.0723 59.6749 89.6883 60.2451 89.3446C60.7873 88.953 61.3574 88.6013 61.9506 88.2924Z" fill="#263238"/>
<path d="M63.7366 88.0654C63.1887 88.5178 62.6105 88.9322 62.0061 89.3058C61.4281 89.7154 60.8232 90.0854 60.1953 90.4133C60.744 89.962 61.3221 89.5476 61.9258 89.1729C62.5037 88.7633 63.1087 88.3933 63.7366 88.0654Z" fill="#263238"/>
<path d="M66.004 87.9989C66.0261 88.0349 65.3062 88.489 64.4839 89.1341C63.6616 89.7792 63.0441 90.3635 63.0137 90.333C63.1164 90.1764 63.2403 90.0348 63.3819 89.9121C63.701 89.5943 64.0394 89.2966 64.3953 89.0206C64.7489 88.7432 65.1187 88.4871 65.5028 88.2536C65.6558 88.1435 65.8248 88.0576 66.004 87.9989Z" fill="#263238"/>
<path d="M67.009 88.1955C67.0339 88.2287 66.3805 88.7077 65.6246 89.3446C64.8687 89.9814 64.2707 90.5351 64.2402 90.5075C65.0266 89.5866 65.9627 88.805 67.009 88.1955Z" fill="#263238"/>
<path d="M69.1633 88.1955C69.1882 88.2287 68.5348 88.7077 67.7789 89.3446C67.023 89.9814 66.425 90.5351 66.3945 90.5075C66.772 90.0327 67.2052 89.6051 67.6848 89.2338C68.1332 88.8284 68.6297 88.4797 69.1633 88.1955Z" fill="#263238"/>
<path d="M70.7864 88.1955C70.8113 88.2287 70.1578 88.7077 69.402 89.3446C68.6461 89.9814 68.048 90.5351 68.0176 90.5075C68.395 90.0327 68.8282 89.6051 69.3078 89.2338C69.7562 88.8284 70.2528 88.4797 70.7864 88.1955Z" fill="#263238"/>
<path d="M71.6223 88.1955C71.6444 88.2287 70.9938 88.7077 70.2379 89.3446C69.482 89.9814 68.8867 90.5351 68.8535 90.5075C69.6399 89.5866 70.576 88.805 71.6223 88.1955Z" fill="#263238"/>
<path d="M74.5764 88.1124C74.6013 88.1457 73.9479 88.6247 73.192 89.2615C72.4361 89.8983 71.8408 90.4548 71.8076 90.4244C72.184 89.9487 72.6174 89.521 73.0979 89.1507C73.5457 88.7446 74.0424 88.3958 74.5764 88.1124Z" fill="#263238"/>
<path d="M77.5305 88.0294C77.5554 88.0654 76.902 88.5416 76.1461 89.1812C75.3902 89.8208 74.7922 90.3718 74.7617 90.3413C75.1396 89.8678 75.5727 89.4411 76.052 89.0705C76.5008 88.6647 76.9972 88.3151 77.5305 88.0294Z" fill="#263238"/>
<path d="M80.4856 87.9602C80.5105 87.9934 79.8571 88.4724 79.1012 89.1092C78.3453 89.746 77.7473 90.2998 77.7168 90.2721C78.0942 89.7973 78.5274 89.3697 79.007 88.9985C79.4554 88.593 79.952 88.2443 80.4856 87.9602Z" fill="#263238"/>
<path d="M83.4387 87.866C83.4636 87.8993 82.8102 88.3783 82.0543 89.0151C81.2984 89.6519 80.7004 90.2084 80.6699 90.178C81.4553 89.2561 82.3915 88.4744 83.4387 87.866Z" fill="#263238"/>
<path d="M67.6882 29.5286C71.1411 27.1934 72.0473 22.5012 69.7121 19.0482C67.3769 15.5952 62.6846 14.6891 59.2316 17.0243C55.7787 19.3595 54.8725 24.0518 57.2078 27.5047C59.543 30.9577 64.2352 31.8639 67.6882 29.5286Z" fill="#FF725E"/>
<path d="M65.946 16.495C65.946 16.495 67.2003 28.9906 67.3553 37.4797L67.9091 47.4999C67.9091 47.4999 62.031 45.631 56.0892 45.9079L51.2881 33.6006L65.946 16.495Z" fill="#263238"/>
<path d="M32.7314 18.6741C33.8666 13.4134 35.0295 7.94779 39.3072 4.69169C43.1198 1.78724 47.4253 1.02029 52.2153 1.29716C54.5715 1.4273 57.2157 2.55419 59.2535 3.74477C62.0444 5.37835 63.1907 8.62614 64.5142 11.5832C67.1501 17.5029 66.6932 25.4604 64.8188 27.6422L40.0576 40.2706C35.741 37.9448 32.8449 36.8456 31.7512 32.0639C31.012 28.8078 32.0253 21.9385 32.7314 18.6741Z" fill="#263238"/>
<path d="M39.7697 9.5537L55.2997 5.20947C60.2836 4.55604 63.775 10.6363 64.218 15.6506C64.7108 21.2241 65.0902 28.0464 64.5336 32.2273C63.4261 40.6333 57.0219 41.8599 57.0219 41.8599C57.0219 41.8599 57.0053 41.9873 57.0219 44.4764L57.1687 50.0749C55.2305 56.9082 48.3335 56.216 39.2021 45.2267L37.3304 14.5873C37.2058 12.1813 38.2524 9.75305 39.7697 9.5537Z" fill="#FFBE9D"/>
<path d="M62.8147 22.5393C62.8231 22.819 62.7223 23.0911 62.5337 23.2978C62.3451 23.5045 62.0834 23.6297 61.8041 23.6468C61.6677 23.6613 61.5298 23.6482 61.3986 23.6084C61.2673 23.5686 61.1454 23.5029 61.0401 23.4151C60.9347 23.3273 60.8481 23.2193 60.7853 23.0974C60.7225 22.9754 60.6848 22.8422 60.6744 22.7054C60.6652 22.426 60.7654 22.1539 60.9536 21.9471C61.1418 21.7403 61.4032 21.6151 61.6822 21.5979C61.8187 21.5838 61.9566 21.5971 62.0878 21.6371C62.2191 21.677 62.341 21.7427 62.4465 21.8304C62.552 21.9181 62.6389 22.026 62.7021 22.1477C62.7653 22.2694 62.8036 22.4026 62.8147 22.5393Z" fill="#263238"/>
<path d="M62.8527 20.6787C62.7225 20.8227 61.8947 20.2412 60.7373 20.2717C59.58 20.3021 58.7493 20.903 58.622 20.7645C58.5583 20.7036 58.6884 20.4489 59.0511 20.1692C59.5439 19.8156 60.1336 19.6223 60.7401 19.6155C61.3409 19.5979 61.9316 19.7725 62.4263 20.1139C62.789 20.363 62.9164 20.615 62.8527 20.6787Z" fill="#263238"/>
<path d="M51.8882 22.5393C51.8981 22.819 51.7981 23.0914 51.6098 23.2983C51.4215 23.5053 51.1597 23.6304 50.8803 23.6468C50.744 23.6613 50.6061 23.6483 50.4748 23.6084C50.3436 23.5686 50.2217 23.5029 50.1164 23.4151C50.011 23.3273 49.9244 23.2193 49.8615 23.0974C49.7987 22.9755 49.761 22.8422 49.7507 22.7054C49.7408 22.4258 49.8407 22.1534 50.029 21.9464C50.2173 21.7395 50.4792 21.6144 50.7585 21.5979C50.8949 21.5835 51.0328 21.5965 51.164 21.6363C51.2952 21.6761 51.4171 21.7419 51.5225 21.8296C51.6278 21.9174 51.7145 22.0255 51.7773 22.1474C51.8401 22.2693 51.8778 22.4026 51.8882 22.5393Z" fill="#263238"/>
<path d="M51.4905 20.6538C51.3604 20.7977 50.5298 20.2163 49.3752 20.2467C48.2206 20.2772 47.3872 20.878 47.2598 20.7396C47.1962 20.6787 47.3235 20.4239 47.689 20.1443C48.1811 19.7892 48.7712 19.5958 49.378 19.5905C49.9787 19.573 50.5694 19.7476 51.0642 20.0889C51.4269 20.3381 51.5542 20.5901 51.4905 20.6538Z" fill="#263238"/>
<path d="M55.8818 28.207C55.8818 28.1406 56.5907 27.9993 57.7508 27.8194C58.0443 27.7834 58.3239 27.7169 58.3682 27.5148C58.4125 27.3127 58.3018 26.9832 58.1495 26.6454L57.2192 24.4304C55.9261 21.2601 54.9848 18.6519 55.1121 18.6159C55.2395 18.5799 56.3913 21.0912 57.6843 24.2615C57.9944 25.0423 58.2935 25.7871 58.5759 26.5014C58.6977 26.8337 58.897 27.2075 58.7586 27.6533C58.7189 27.7587 58.6556 27.8537 58.5735 27.931C58.4915 28.0083 58.3928 28.0657 58.2851 28.099C58.1222 28.1469 57.9538 28.1738 57.784 28.1793C56.6156 28.2485 55.8874 28.2707 55.8818 28.207Z" fill="#263238"/>
<path d="M57.0227 41.8599C53.0817 42.0202 49.1737 41.0828 45.7344 39.152C45.7344 39.152 48.6527 44.9416 57.0144 43.9476L57.0227 41.8599Z" fill="#EB996E"/>
<path d="M52.1186 30.458C52.2799 30.1971 52.5035 29.9802 52.7693 29.827C53.0351 29.6738 53.3348 29.5891 53.6415 29.5803C54.0692 29.5392 54.5002 29.6133 54.8897 29.7949C55.2792 29.9765 55.613 30.259 55.8565 30.6131C56.0586 30.8457 56.0586 31.5102 55.9811 31.6957C55.9036 31.8812 55.9811 31.7898 55.826 31.9199C55.3221 32.3879 54.7877 32.8586 54.126 33.0275C53.7744 33.1259 53.4013 33.1159 53.0555 32.9988C52.7097 32.8817 52.4073 32.663 52.1879 32.3713C52.0026 32.0891 51.8982 31.7616 51.886 31.4243C51.8738 31.087 51.9542 30.7528 52.1186 30.458Z" fill="#EB996E"/>
<path d="M52.2936 29.1373C52.4818 29.1207 52.5234 30.375 53.6226 31.2333C54.7218 32.0916 56.0536 31.9089 56.0702 32.0861C56.0896 32.1636 55.7933 32.338 55.2174 32.3629C54.4827 32.3965 53.7598 32.1689 53.1768 31.7206C52.6165 31.2912 52.2451 30.6607 52.1413 29.9624C52.0776 29.4474 52.216 29.1318 52.2936 29.1373Z" fill="#263238"/>
<path d="M51.9854 16.4314C51.8995 16.7553 50.7366 16.7082 49.3993 16.9851C48.062 17.262 46.9988 17.7188 46.7939 17.453C46.7025 17.3257 46.8687 17.0128 47.284 16.675C47.8418 16.2548 48.4878 15.9669 49.1733 15.8331C49.8587 15.6992 50.5656 15.723 51.2406 15.9025C51.7528 16.0548 52.0241 16.2791 51.9854 16.4314Z" fill="#263238"/>
<path d="M62.8007 17.5693C62.5238 17.7908 61.6931 17.3838 60.6465 17.2011C59.5999 17.0183 58.6669 17.0654 58.5035 16.7608C58.4343 16.6169 58.617 16.3788 59.0573 16.2071C59.6395 15.9871 60.272 15.9362 60.8819 16.0603C61.4936 16.163 62.0627 16.4399 62.521 16.8577C62.8422 17.1706 62.9197 17.4586 62.8007 17.5693Z" fill="#263238"/>
<path d="M55.0977 4.30409C55.1115 4.365 55.1198 4.42592 55.1336 4.48683H55.1032C55.1032 4.43422 55.1004 4.37054 55.0977 4.30409Z" fill="#263238"/>
<path d="M38.7645 44.9997C38.9057 45.0717 39.2103 53.6521 40.3233 57.3319C40.7193 58.6415 44.8918 58.6221 44.8918 58.6221C45.3819 58.6221 44.4045 42.1561 44.1858 38.4654C44.0446 36.1285 41.3838 32.734 40.7968 30.4663C39.8609 26.8392 41.2536 24.5882 41.8046 20.8614C43.9034 20.6316 46.9795 19.2168 48.3971 17.6109C50.1027 15.6727 51.152 13.2666 52.1765 10.8993C52.0786 13.251 51.2501 15.5138 49.8064 17.3727C50.7312 17.5804 51.7196 17.1955 52.4257 16.5615C53.107 15.8948 53.6401 15.0919 53.99 14.2053C54.9268 12.0986 55.4621 9.83559 55.5682 7.53248C55.8349 10.836 55.4154 14.1589 54.3361 17.2925C54.9259 17.1208 55.5489 17.2925 56.1552 17.3894C56.7616 17.4863 57.4565 17.478 57.8912 17.046C58.1558 16.7305 58.3257 16.3465 58.3813 15.9385C58.9987 13.144 59.1344 10.2647 58.7828 7.4245C59.5054 8.96395 60.2253 10.52 60.6351 12.173C61.0449 13.8259 61.1307 15.5924 60.5991 17.2094C60.8345 17.5195 61.3467 17.4863 61.6374 17.2094C61.906 16.9235 62.0717 16.5562 62.1081 16.1656C62.349 14.7618 62.1081 13.3248 61.8921 11.921C62.7089 13.4162 62.9609 15.1411 63.4011 16.7885C63.8414 18.436 64.5529 20.1249 65.965 21.0801C66.2365 18.9427 66.1973 16.7773 65.8487 14.651C65.5912 12.8929 64.7827 11.1402 64.0379 9.52601C63.2073 7.72076 62.0306 5.94597 60.7154 4.75539C58.2816 2.55975 57.235 3.47621 55.6485 4.27639L55.463 4.35115C55.463 4.31238 55.463 4.27362 55.463 4.23486L55.3966 3.89983C51.2822 2.91615 46.9791 3.05577 42.9371 4.30408C39.9551 5.22885 36.2588 8.23022 34.7082 10.9492C34.6806 10.999 34.6473 11.0488 34.6196 11.1042C31.2971 17.7161 27.2491 33.9301 27.5122 47.0763L31.502 46.3398L38.7645 44.9997Z" fill="#263238"/>
<path d="M40.9652 30.5176C43.9127 27.5701 43.9127 22.7911 40.9652 19.8435C38.0176 16.896 33.2387 16.896 30.2911 19.8435C27.3436 22.7911 27.3436 27.5701 30.2911 30.5176C33.2387 33.4652 38.0176 33.4652 40.9652 30.5176Z" fill="#FF725E"/>
<path d="M35.4922 17.633C35.4922 17.633 35.8632 2.06136 49.5659 0.0346098C49.5659 0.0346098 56.5238 -0.519147 57.4708 2.8034C57.4708 2.8034 53.9018 0.865246 50.3522 1.79556C48.0126 2.40746 39.4709 6.20069 39.0695 18.8817L35.542 20.4018L35.4922 17.633Z" fill="#FF725E"/>
<path d="M40.9805 25.1392C40.9805 25.1392 40.9805 25.1087 40.9805 25.0506C40.9805 24.9924 40.9805 24.8955 40.9611 24.7876C40.9554 24.6453 40.9387 24.5036 40.9112 24.3639C40.8845 24.1713 40.8447 23.9808 40.7922 23.7936C40.6604 23.2782 40.4522 22.7855 40.1747 22.3316C39.8116 21.7289 39.336 21.2016 38.7737 20.7784C38.0956 20.2623 37.3055 19.9133 36.4673 19.7594C35.5041 19.5824 34.511 19.6655 33.5906 20.0003C33.0937 20.1763 32.6268 20.4275 32.2062 20.7451C31.9882 20.9077 31.781 21.0844 31.586 21.274C31.3923 21.4724 31.2128 21.6843 31.0488 21.908C30.3617 22.8455 29.9894 23.9768 29.9856 25.1392C29.9917 25.7247 30.085 26.3061 30.2625 26.8641C30.4407 27.4047 30.7043 27.9132 31.0433 28.3704C31.3637 28.818 31.7545 29.2108 32.2007 29.5333C32.6213 29.8509 33.0882 30.1021 33.585 30.2781C34.4451 30.5925 35.3703 30.686 36.2759 30.5501C37.1814 30.4142 38.0384 30.0531 38.7682 29.5C39.3317 29.0782 39.8075 28.5506 40.1692 27.9467C40.444 27.4952 40.6502 27.0053 40.7811 26.4931C40.8336 26.3059 40.8734 26.1153 40.9002 25.9228C40.9276 25.783 40.9443 25.6414 40.95 25.4991C40.95 25.3912 40.9638 25.3053 40.9694 25.2361C40.9749 25.1669 40.9694 25.1475 40.9694 25.1475C40.9736 25.1778 40.9736 25.2086 40.9694 25.2389C40.9694 25.3053 40.9694 25.3911 40.9694 25.5019C40.9705 25.6448 40.9585 25.7876 40.9334 25.9283C40.9133 26.1236 40.8781 26.3171 40.8282 26.507C40.7053 27.0318 40.5017 27.5343 40.2246 27.9966C39.8234 28.6784 39.282 29.2672 38.6362 29.724C37.9904 30.1808 37.2549 30.4951 36.4784 30.6463C35.494 30.8335 34.4774 30.7522 33.5352 30.411C33.0258 30.2319 32.5468 29.9761 32.1148 29.6523C31.8912 29.4862 31.6785 29.3058 31.478 29.1124C31.2788 28.9084 31.0938 28.691 30.9242 28.4617C30.5747 27.9936 30.3035 27.4718 30.1213 26.9168C29.7343 25.769 29.7343 24.526 30.1213 23.3782C30.3035 22.8232 30.5747 22.3014 30.9242 21.8333C31.0945 21.6046 31.2795 21.3872 31.478 21.1826C31.6785 20.9892 31.8912 20.8088 32.1148 20.6427C32.5472 20.3194 33.0261 20.0636 33.5352 19.884C34.477 19.5456 35.492 19.4644 36.4756 19.6487C37.3315 19.8114 38.1369 20.1738 38.8263 20.7064C39.3948 21.14 39.8726 21.6809 40.2329 22.2984C40.51 22.7607 40.7137 23.2632 40.8365 23.788C40.8864 23.9779 40.9216 24.1714 40.9417 24.3667C40.9668 24.5074 40.9789 24.6502 40.9777 24.7931C40.9777 24.9038 40.9777 24.9897 40.9777 25.07C40.9811 25.0929 40.9821 25.1161 40.9805 25.1392Z" fill="#263238"/>
<path d="M37.2259 22.866C37.2536 22.8937 36.2652 23.9265 35.0109 25.1752C33.7566 26.4239 32.7294 27.4096 32.7017 27.3902C32.6741 27.3708 33.6597 26.327 34.9168 25.081C36.1738 23.8351 37.1982 22.8383 37.2259 22.866Z" fill="#263238"/>
<path d="M36.3565 24.8319C36.1164 25.168 35.8376 25.4747 35.5259 25.7456C35.2469 26.0508 34.9338 26.323 34.5928 26.5568C35.1111 25.9157 35.702 25.3368 36.3537 24.8319H36.3565Z" fill="#263238"/>
<path d="M54.6053 22.3787C54.577 21.9815 54.5177 21.5872 54.4281 21.1992C54.3085 20.7475 54.1219 20.3163 53.8743 19.92C53.5557 19.3913 53.1383 18.9288 52.645 18.5578C52.0506 18.106 51.3582 17.8006 50.6238 17.6662C49.7808 17.5129 48.9121 17.5864 48.1069 17.8794C47.6712 18.0329 47.2621 18.2534 46.8942 18.5329C46.5041 18.8141 46.1627 19.1574 45.8836 19.549C45.2792 20.3686 44.9531 21.3603 44.9531 22.3787C44.9531 23.3971 45.2792 24.3887 45.8836 25.2084C46.1627 25.6 46.5041 25.9433 46.8942 26.2245C47.2621 26.504 47.6712 26.7245 48.1069 26.878C48.9121 27.1709 49.7808 27.2445 50.6238 27.0912C51.3582 26.9568 52.0506 26.6514 52.645 26.1996C53.1399 25.8272 53.5582 25.3628 53.8771 24.8318C54.1246 24.4356 54.3113 24.0044 54.4308 23.5527C54.5203 23.1647 54.5795 22.7703 54.608 22.3732C54.6121 22.3988 54.6121 22.425 54.608 22.4507C54.608 22.5116 54.608 22.5891 54.608 22.6833C54.6085 22.8094 54.5983 22.9354 54.5776 23.0598C54.5586 23.2308 54.5272 23.4001 54.4834 23.5665C54.3757 24.0264 54.1983 24.4671 53.9574 24.8734C53.6053 25.474 53.129 25.9925 52.5602 26.3941C51.9915 26.7956 51.3436 27.0711 50.6598 27.2019C49.795 27.3665 48.9018 27.2957 48.0737 26.997C47.6265 26.8401 47.2062 26.615 46.8278 26.3298C46.4233 26.0434 46.0703 25.6904 45.7839 25.2859C45.1625 24.444 44.8271 23.4251 44.8271 22.3787C44.8271 21.3323 45.1625 20.3134 45.7839 19.4715C45.9317 19.2709 46.0927 19.0804 46.2657 18.9011C46.4392 18.7308 46.6242 18.5726 46.8195 18.4276C47.1973 18.1413 47.6177 17.9162 48.0654 17.7604C48.8386 17.4804 49.6698 17.3999 50.4824 17.5262C51.2949 17.6525 52.0625 17.9816 52.7142 18.483C53.2132 18.8651 53.6327 19.341 53.9491 19.884C54.1905 20.29 54.3679 20.7308 54.4751 21.1909C54.5189 21.3573 54.5503 21.5266 54.5693 21.6976C54.5901 21.822 54.6003 21.948 54.5997 22.0741C54.5997 22.1683 54.5997 22.2458 54.5997 22.3039C54.6052 22.3285 54.607 22.3536 54.6053 22.3787Z" fill="#455A64"/>
<path d="M67.1676 22.3787C67.1372 21.9816 67.0771 21.5873 66.9876 21.1992C66.8681 20.7475 66.6814 20.3163 66.4339 19.92C66.1155 19.392 65.6992 18.9296 65.2073 18.5578C64.6116 18.1065 63.9184 17.8012 63.1833 17.6662C62.3403 17.5129 61.4717 17.5865 60.6665 17.8794C60.2308 18.0329 59.8216 18.2534 59.4538 18.5329C59.0637 18.8141 58.7223 19.1574 58.4432 19.549C57.8388 20.3687 57.5127 21.3603 57.5127 22.3787C57.5127 23.3971 57.8388 24.3888 58.4432 25.2084C58.5864 25.4034 58.7427 25.5885 58.9111 25.7622C59.0856 25.928 59.2706 26.0824 59.4649 26.2246C59.8327 26.504 60.2418 26.7245 60.6776 26.878C61.4828 27.171 62.3514 27.2446 63.1944 27.0912C63.9295 26.9563 64.6227 26.6509 65.2184 26.1996C65.7103 25.8278 66.1266 25.3655 66.445 24.8374C66.6925 24.4411 66.8792 24.0099 66.9987 23.5582C67.0879 23.1701 67.1481 22.7758 67.1787 22.3787C67.1816 22.4045 67.1816 22.4305 67.1787 22.4562C67.1787 22.5172 67.1787 22.5947 67.1787 22.6888C67.1791 22.815 67.1689 22.9409 67.1482 23.0654C67.1303 23.2363 67.0998 23.4057 67.0569 23.5721C66.9493 24.0324 66.7709 24.4733 66.528 24.8789C65.9505 25.8644 65.046 26.6164 63.9716 27.0044C62.8973 27.3923 61.721 27.3917 60.6471 27.0026C60.199 26.8457 59.7778 26.6206 59.3984 26.3353C59.2026 26.1911 59.0175 26.0329 58.8446 25.8618C58.6707 25.6826 58.5089 25.4921 58.3601 25.2915C57.7386 24.4496 57.4033 23.4307 57.4033 22.3843C57.4033 21.3378 57.7386 20.3189 58.3601 19.477C58.5089 19.2764 58.6707 19.0859 58.8446 18.9067C59.0175 18.7356 59.2026 18.5774 59.3984 18.4332C59.7772 18.1468 60.1986 17.9217 60.6471 17.7659C61.4743 17.4673 62.3665 17.3966 63.2304 17.561C63.9142 17.6919 64.5622 17.9673 65.1309 18.3689C65.6996 18.7705 66.1759 19.2889 66.528 19.8896C66.7713 20.295 66.9498 20.7359 67.0569 21.1964C67.0998 21.3629 67.1303 21.5322 67.1482 21.7031C67.1644 21.8224 67.1709 21.9428 67.1676 22.0631C67.1676 22.1572 67.1676 22.2347 67.1676 22.2929C67.1711 22.3214 67.1711 22.3502 67.1676 22.3787Z" fill="#455A64"/>
<path d="M57.7006 20.9085C57.5337 20.8644 57.3692 20.8117 57.2078 20.7507C56.4122 20.5256 55.5599 20.6252 54.8377 21.0275C54.5608 21.1798 54.4141 21.3044 54.3975 21.3044C54.4976 21.1579 54.6303 21.0366 54.7851 20.95C55.1457 20.7184 55.5548 20.5729 55.9807 20.5249C56.4066 20.4769 56.8379 20.5276 57.241 20.6731C57.41 20.716 57.5671 20.7964 57.7006 20.9085Z" fill="#455A64"/>
<path d="M39.2026 18.591C38.5644 18.3365 37.9094 18.1265 37.2423 17.9625C36.5648 17.8467 35.8803 17.7773 35.1934 17.7548C35.3911 17.6979 35.5969 17.6735 35.8025 17.6829C36.7926 17.6644 37.7741 17.8698 38.6737 18.2837C38.8655 18.3568 39.0441 18.4606 39.2026 18.591Z" fill="#263238"/>
<path d="M57.174 2.71757C56.9966 2.37006 56.7541 2.05987 56.4596 1.80387C56.1095 1.51112 55.7075 1.28666 55.2746 1.14213C54.6985 0.960422 54.095 0.880774 53.4915 0.906778C52.7576 0.935782 52.0276 1.02842 51.3097 1.18366C50.4877 1.34206 49.6794 1.56518 48.8926 1.85094C47.0728 2.50988 45.3768 3.4702 43.8755 4.69171C42.3694 5.91335 41.0877 7.3881 40.0878 9.04978C39.2809 10.4078 38.6597 11.868 38.2411 13.3912C37.9611 14.4197 37.7757 15.4716 37.6873 16.5338C37.6513 16.9104 37.643 17.2011 37.6319 17.4004V17.6275C37.6336 17.6533 37.6336 17.6792 37.6319 17.705C37.6279 17.6793 37.6279 17.6532 37.6319 17.6275C37.6319 17.5666 37.6319 17.4946 37.6319 17.4004C37.6319 17.2011 37.6319 16.9076 37.6596 16.5283C37.7252 15.4601 37.8958 14.401 38.1691 13.3663C38.5747 11.8272 39.1906 10.3514 39.9992 8.98056C40.9963 7.3024 42.2813 5.81309 43.7952 4.58096C45.3094 3.35165 47.0207 2.38742 48.8566 1.72911C49.6559 1.4395 50.4772 1.21451 51.3125 1.0563C52.0374 0.906779 52.7739 0.82062 53.5137 0.798796C54.129 0.778537 54.743 0.867594 55.3272 1.06183C55.7668 1.21273 56.1724 1.4489 56.5206 1.7568C56.7413 1.95085 56.9284 2.18006 57.0743 2.43515C57.118 2.52525 57.1515 2.61999 57.174 2.71757Z" fill="#263238"/>
<path d="M64.9047 41.5719L55.4908 42.0786L52.9463 46.7468C52.9026 46.8253 52.88 46.9139 52.8809 47.0038C52.8818 47.0937 52.906 47.1818 52.9513 47.2594C52.9965 47.3371 53.0612 47.4017 53.139 47.4467C53.2168 47.4918 53.305 47.5159 53.3949 47.5165C53.8462 47.5165 54.3722 47.4528 54.663 47.1926C55.2416 46.672 56.3408 45.1077 56.3408 45.1077L55.7622 48.5825L58.4285 51.4786L59.0099 52.0629C59.0691 52.1221 59.1402 52.168 59.2185 52.1977C59.2968 52.2273 59.3805 52.2399 59.4641 52.2346C59.5476 52.2294 59.6291 52.2064 59.7031 52.1673C59.7771 52.1281 59.8419 52.0736 59.8932 52.0075C60.1839 51.6282 60.5134 51.1353 60.5134 50.8418C60.5134 50.8418 61.787 50.493 61.8452 49.6817C61.8617 48.9654 61.8228 48.249 61.7289 47.5387C61.7289 47.5387 62.5983 47.0181 62.7146 46.4976L64.099 47.9457L70.3093 50.1607L73.9973 49.0532L79.0421 47.2036C79.0421 47.2036 75.9743 44.529 75.3347 44.0666C74.6951 43.6042 64.9047 41.5719 64.9047 41.5719Z" fill="#FFBE9D"/>
<path d="M64.9047 41.5719C64.9047 41.5719 64.9989 41.5858 65.1816 41.6218L65.9929 41.7851C66.7045 41.9291 67.7483 42.1451 69.0773 42.433C70.4063 42.721 72.0233 43.0698 73.8673 43.5405C74.35 43.6533 74.8239 43.8014 75.2849 43.9835C75.5018 44.1243 75.7082 44.2807 75.9023 44.4515L76.5115 44.9582C77.3421 45.6476 78.1728 46.3841 79.0726 47.1538L79.1501 47.2203L79.0726 47.259L74.9194 48.7819C74.5567 48.9092 74.194 49.0587 73.8119 49.175L72.6712 49.5211L70.326 50.2355H70.3039H70.2817L64.0686 48.0204H64.052L62.6676 46.5724L62.7894 46.5364C62.7262 46.7482 62.6077 46.9393 62.4461 47.0901C62.2933 47.2474 62.1254 47.3893 61.9449 47.5138L61.7705 47.6273L61.8065 47.5553C61.8981 48.2287 61.9388 48.908 61.9283 49.5876C61.9315 49.7669 61.8866 49.9438 61.7982 50.0998C61.7067 50.2502 61.5873 50.3817 61.4465 50.4874C61.1715 50.6891 60.8632 50.8409 60.5356 50.936L60.591 50.8667C60.5759 51.0314 60.5259 51.1909 60.4442 51.3347C60.3715 51.472 60.2911 51.6051 60.2034 51.7334C60.1148 51.8607 60.0289 51.9826 59.9265 52.1072C59.8128 52.2356 59.6538 52.3148 59.4828 52.3283C59.3118 52.3417 59.1423 52.2882 59.01 52.1791C58.891 52.0684 58.7941 51.966 58.6861 51.858C58.4701 51.6503 58.2652 51.4343 58.0686 51.2128L55.7152 48.6545L55.693 48.6296V48.5963L56.2745 45.1215L56.3935 45.1686C56.1056 45.5728 55.8121 45.9651 55.5131 46.3453C55.3635 46.5336 55.2113 46.7191 55.0534 46.8991C54.9038 47.09 54.7243 47.2555 54.5218 47.3892C54.3077 47.4976 54.0745 47.5635 53.8352 47.583C53.7189 47.5968 53.6026 47.6023 53.4891 47.6051C53.3652 47.6171 53.2405 47.5941 53.1291 47.5387C53.0187 47.4798 52.9302 47.3868 52.8768 47.2735C52.8234 47.1603 52.808 47.0328 52.8329 46.9101C52.8631 46.7982 52.9108 46.6917 52.9741 46.5945L53.1319 46.3176L55.4438 42.0925L55.4577 42.0675H55.4854L62.4073 41.7187L64.2707 41.6328L64.7552 41.6135H64.9186L64.7525 41.6301L64.2707 41.6633L62.4045 41.7768L55.4964 42.17L55.5352 42.1423L53.2399 46.3758L53.0848 46.6527C53.0273 46.7376 52.9834 46.831 52.9547 46.9295C52.9341 47.0273 52.946 47.1291 52.9884 47.2195C53.0309 47.31 53.1017 47.3841 53.19 47.4307C53.284 47.4753 53.3886 47.4926 53.4918 47.4805C53.6026 47.4805 53.7161 47.4805 53.8269 47.4584C54.0505 47.4397 54.2685 47.3786 54.4692 47.2784C54.6572 47.1496 54.8244 46.9927 54.9648 46.8132C55.1199 46.6388 55.2694 46.4533 55.4189 46.2595C55.7152 45.8829 56.0059 45.4898 56.2911 45.0883L56.4544 44.8585L56.4101 45.1354C56.2255 46.2595 56.0327 47.4178 55.8315 48.6102L55.8148 48.552L58.1683 51.1076C58.3677 51.3291 58.5726 51.5451 58.7857 51.7528C58.891 51.8552 59.0017 51.9687 59.1014 52.0629C59.2047 52.1474 59.3365 52.189 59.4696 52.1791C59.5364 52.1746 59.6016 52.1568 59.6615 52.1268C59.7214 52.0969 59.7748 52.0554 59.8185 52.0047C59.9071 51.8967 59.9985 51.7666 60.0954 51.6448C60.1808 51.5214 60.2584 51.3929 60.328 51.2599C60.3997 51.137 60.444 51.0001 60.4581 50.8584V50.8058L60.5107 50.7892C60.8199 50.6985 61.1112 50.5552 61.3718 50.3656C61.5016 50.2775 61.608 50.1591 61.6818 50.0206C61.7556 49.8822 61.7946 49.7278 61.7954 49.571C61.8056 48.9006 61.7648 48.2305 61.6736 47.5663V47.5193L61.7151 47.4944L61.8785 47.3864C62.0523 47.2683 62.2138 47.1329 62.3602 46.9821C62.5015 46.8493 62.6063 46.6825 62.6648 46.4976L62.698 46.3702L62.7866 46.4644C63.2656 46.96 63.7391 47.4528 64.171 47.9124L64.1461 47.8931L70.3565 50.1081H70.3122L72.6573 49.3993L73.7981 49.0532C74.1746 48.9424 74.5346 48.7902 74.9056 48.6656L79.0588 47.151L79.0394 47.2535C78.1534 46.481 77.3006 45.7417 76.4866 45.0385L75.8802 44.5318C75.6904 44.3621 75.4877 44.2075 75.2738 44.0694C74.8234 43.8908 74.3607 43.7446 73.8894 43.6319C72.051 43.1501 70.434 42.8013 69.1078 42.4939L66.0316 41.8128L65.2232 41.6356C64.9961 41.5996 64.9047 41.5719 64.9047 41.5719Z" fill="#EB996E"/>
<path d="M62.8947 42.6545C62.8548 42.6782 62.812 42.6968 62.7674 42.7099L62.3991 42.8456L61.0286 43.3107L58.9963 43.9891C58.8097 44.0495 58.6425 44.1584 58.5118 44.3047C58.3864 44.4686 58.2977 44.6574 58.2515 44.8585C58.1355 45.2934 58.043 45.7343 57.9746 46.1792C57.8298 47.0373 57.8046 47.9113 57.8999 48.7763C58.0058 49.4789 58.2051 50.1642 58.4924 50.8141C58.6805 51.2559 58.9056 51.681 59.1652 52.085C59.3535 52.3619 59.4753 52.5142 59.4642 52.5225C59.428 52.4933 59.3954 52.4598 59.3673 52.4228C59.2778 52.3265 59.1955 52.2237 59.1209 52.1155C58.8387 51.7211 58.5975 51.299 58.401 50.8556C58.0942 50.2023 57.8817 49.5087 57.7697 48.7957C57.6638 47.9177 57.6843 47.0291 57.8306 46.157C57.9029 45.7062 57.9999 45.2598 58.1214 44.8197C58.1736 44.5999 58.2728 44.394 58.4121 44.2161C58.5616 44.0511 58.7529 43.9296 58.9658 43.8645C59.7383 43.6125 60.4305 43.3993 61.0147 43.2138L62.3991 42.7902L62.7784 42.6822C62.8159 42.6681 62.855 42.6588 62.8947 42.6545Z" fill="#EB996E"/>
<path d="M65.3615 43.5212C65.2342 43.5856 65.1017 43.6393 64.9655 43.6817L63.858 44.0694L62.2217 44.6231C61.8987 44.7169 61.5831 44.8345 61.2775 44.9748C60.9735 45.155 60.7349 45.4276 60.5964 45.7528C60.2913 46.3834 60.0529 47.0441 59.8848 47.7242C59.7512 48.2787 59.7212 48.8532 59.7962 49.4187C59.8737 49.9401 60.0626 50.4387 60.35 50.8806C60.35 50.8806 60.3195 50.8557 60.2724 50.8003C60.2048 50.7184 60.1437 50.6314 60.0897 50.54C59.8898 50.1988 59.7555 49.8232 59.6938 49.4325C59.6002 48.8546 59.6199 48.2641 59.7519 47.6937C59.9149 47.0006 60.1535 46.3274 60.4635 45.6863C60.6168 45.3371 60.8778 45.0461 61.2083 44.8557C61.5239 44.7104 61.8496 44.5882 62.1829 44.4902L63.8276 43.9642L64.9351 43.6181C65.0737 43.5718 65.2165 43.5393 65.3615 43.5212Z" fill="#EB996E"/>
<path d="M65.0265 45.5368C64.7601 45.8922 64.3893 46.1555 63.966 46.2899C63.5608 46.469 63.1105 46.5192 62.6758 46.4339C63.0964 46.377 63.5113 46.2844 63.9162 46.157C64.3034 45.9826 64.6749 45.7751 65.0265 45.5368Z" fill="#EB996E"/>
<path d="M70.988 49.1612C70.765 49.2351 70.5306 49.2688 70.2958 49.2608C69.7266 49.2671 69.1618 49.1598 68.6345 48.9452C68.1072 48.7338 67.6279 48.4184 67.2252 48.0177C67.0521 47.8592 66.9078 47.6718 66.7988 47.4639C66.8182 47.4501 66.9816 47.6577 67.2972 47.9429C68.1233 48.6854 69.1831 49.1154 70.293 49.1584C70.7194 49.1722 70.9824 49.1362 70.988 49.1612Z" fill="#EB996E"/>
<path d="M60.3306 42.1561C60.3306 42.1727 60.0122 42.1977 59.5 42.2973C59.2453 42.3444 58.9462 42.4053 58.6085 42.4801C58.2468 42.5391 57.8954 42.6491 57.5646 42.8068C57.2407 42.9669 56.9696 43.2168 56.7838 43.5267C56.6362 43.7853 56.5306 44.0656 56.471 44.3573C56.3602 44.8585 56.327 45.1879 56.3021 45.1879C56.2886 45.1129 56.2886 45.036 56.3021 44.9609C56.3133 44.7549 56.3364 44.5496 56.3713 44.3462C56.422 44.0388 56.5241 43.7421 56.6731 43.4685C56.8659 43.1306 57.1551 42.8578 57.5037 42.685C57.8467 42.5237 58.2114 42.4136 58.5863 42.3582C58.9241 42.2918 59.2314 42.2392 59.4889 42.206C59.765 42.1444 60.0492 42.1276 60.3306 42.1561Z" fill="#EB996E"/>
<path d="M29.2353 67.557C29.2685 67.5791 27.5048 70.2039 25.3009 73.413C23.0969 76.622 21.2778 79.2108 21.2446 79.1887C21.2114 79.1665 22.9751 76.5445 25.1818 73.3327C27.3885 70.1209 29.1965 67.5348 29.2353 67.557Z" fill="#263238"/>
</svg>
