<svg width="17" height="15" viewBox="0 0 17 15" fill="none" xmlns="http://www.w3.org/2000/svg">
<path d="M11.3125 3.07138C11.7895 3.59427 12.0502 4.24625 12.051 4.91877C12.0518 5.59129 11.7927 6.24376 11.317 6.76756L12.1412 7.35408C12.7682 6.66379 13.1095 5.80395 13.1085 4.9177C13.1074 4.03144 12.764 3.17225 12.1353 2.48315L11.3125 3.07138Z" fill="currentColor" fill-opacity="1.0"/>
<path d="M14.2789 0.949203L13.4531 1.53954C14.325 2.49528 14.8013 3.68692 14.8028 4.91609C14.8042 6.14527 14.3308 7.33781 13.4613 8.29522L14.2885 8.88409C15.3074 7.75865 15.862 6.3583 15.8603 4.91515C15.8585 3.47201 15.3006 2.07271 14.2789 0.949203Z" fill="currentColor" fill-opacity="1.0"/>
<path d="M11.4854 10.068L9.07892 8.68131L9.98619 7.20668C10.1977 6.86231 10.3086 6.47651 10.309 6.0844V3.75C10.309 2.87976 9.91901 2.04516 9.22491 1.42981C8.53081 0.814452 7.58941 0.46875 6.6078 0.46875C5.6262 0.46875 4.6848 0.814452 3.9907 1.42981C3.2966 2.04516 2.90666 2.87976 2.90666 3.75V6.0844C2.90699 6.47652 3.01795 6.86233 3.22945 7.20671L4.13673 8.68131L1.73022 10.068C1.36037 10.2803 1.05647 10.5714 0.846332 10.9147C0.63619 11.258 0.526517 11.6426 0.527348 12.0332V14.5313H12.6883V12.0332C12.6891 11.6426 12.5794 11.258 12.3693 10.9147C12.1591 10.5714 11.8552 10.2803 11.4854 10.068ZM11.6308 13.5938H1.58482V12.0332C1.58432 11.7988 1.65013 11.5681 1.77622 11.3621C1.90231 11.1561 2.08466 10.9814 2.30658 10.8541L5.53388 8.99432L4.15781 6.75779C4.03091 6.55116 3.96433 6.31967 3.96413 6.0844V3.75C3.96413 3.1284 4.24266 2.53226 4.73844 2.09272C5.23423 1.65318 5.90666 1.40625 6.6078 1.40625C7.30895 1.40625 7.98138 1.65318 8.47717 2.09272C8.97295 2.53226 9.25148 3.1284 9.25148 3.75V6.0844C9.25128 6.31967 9.1847 6.55115 9.0578 6.75776L7.6818 8.99435L10.9091 10.8541C11.131 10.9815 11.3133 11.1561 11.4394 11.3621C11.5655 11.5681 11.6313 11.7988 11.6308 12.0332V13.5938Z" fill="currentColor" fill-opacity="1.0"/>
</svg>
